
  <svg width='1002px'
       height='300px'
       viewBox='0 0 1002 300'
       xmlns='http://www.w3.org/2000/svg'
       xmlns:xlink="http://www.w3.org/1999/xlink">

    <style type='text/css'>
    .keycap .border { stroke: black; stroke-width: 2; }
    .keycap .inner.border { stroke: rgba(0,0,0,.1); }
    </style>
    <defs>
      <linearGradient id="DCS">
        <stop offset="0%" stop-color="black" stop-opacity="0"/>
        <stop offset="40%" stop-color="black" stop-opacity="0.1"/>
        <stop offset="60%" stop-color="black" stop-opacity="0.1"/>
        <stop offset="100%" stop-color="black" stop-opacity="0"/>
      </linearGradient>
      <linearGradient id="SPACE" x1="0%" x2="0%" y1="0%" y2="100%">
        <stop offset="0%" stop-color="black" stop-opacity="0.1"/>
        <stop offset="20%" stop-color="black" stop-opacity="0.0"/>
        <stop offset="40%" stop-color="black" stop-opacity="0.0"/>
        <stop offset="100%" stop-color="black" stop-opacity="0.1"/>
      </linearGradient>
      <radialGradient id="DSA">
        <stop offset="0%" stop-color="black" stop-opacity="0.1"/>
        <stop offset="10%" stop-color="black" stop-opacity="0.1"/>
        <stop offset="100%" stop-color="black" stop-opacity="0"/>
      </radialGradient>
      <radialGradient id="SA" xlink:href="#DSA" />
    </defs>

    <g transform='translate(10,10)'>
      <rect width="982" height="280"
            stroke="#ddd" stroke-width="1" fill="#eeeeee" rx="6"/>
      <g transform='translate(5,5)'>
        
  <g class='  keycap'
  >

  
    <!-- Outer Border -->
    <rect x="1" y="1"
          width="52" height="52"
          rx="5" fill="#91de85" class="outer border"/>
    
    <!-- Outer Fill -->
    <rect x="1" y="1"
          width="52" height="52"
          rx="5" fill="#91de85"/>
    

    
      <!-- Inner Border -->
      <rect x="7" y="4"
            width="40" height="40"
            rx="5" fill="#c1ffb3" class="inner border"/>
      
      <!-- Inner Fill -->
      <rect x="7" y="4"
            width="40" height="40"
            rx="5" fill="#c1ffb3"/>
      
      

     
   
  </g>

  <g class='  keycap'
  >

  
    <!-- Outer Border -->
    <rect x="55" y="1"
          width="52" height="52"
          rx="5" fill="#91de85" class="outer border"/>
    
    <!-- Outer Fill -->
    <rect x="55" y="1"
          width="52" height="52"
          rx="5" fill="#91de85"/>
    

    
      <!-- Inner Border -->
      <rect x="61" y="4"
            width="40" height="40"
            rx="5" fill="#c1ffb3" class="inner border"/>
      
      <!-- Inner Fill -->
      <rect x="61" y="4"
            width="40" height="40"
            rx="5" fill="#c1ffb3"/>
      
      

     
   
  </g>

  <g class='  keycap'
  >

  
    <!-- Outer Border -->
    <rect x="109" y="1"
          width="52" height="52"
          rx="5" fill="#91de85" class="outer border"/>
    
    <!-- Outer Fill -->
    <rect x="109" y="1"
          width="52" height="52"
          rx="5" fill="#91de85"/>
    

    
      <!-- Inner Border -->
      <rect x="115" y="4"
            width="40" height="40"
            rx="5" fill="#c1ffb3" class="inner border"/>
      
      <!-- Inner Fill -->
      <rect x="115" y="4"
            width="40" height="40"
            rx="5" fill="#c1ffb3"/>
      
      

     
   
  </g>

  <g class='  keycap'
  >

  
    <!-- Outer Border -->
    <rect x="190" y="1"
          width="52" height="52"
          rx="5" fill="#f1ede6" class="outer border"/>
    
    <!-- Outer Fill -->
    <rect x="190" y="1"
          width="52" height="52"
          rx="5" fill="#f1ede6"/>
    

    
      <!-- Inner Border -->
      <rect x="196" y="4"
            width="40" height="40"
            rx="5" fill="#fffef7" class="inner border"/>
      
      <!-- Inner Fill -->
      <rect x="196" y="4"
            width="40" height="40"
            rx="5" fill="#fffef7"/>
      
      

     
   
  </g>

  <g class='  keycap'
  >

  
    <!-- Outer Border -->
    <rect x="244" y="1"
          width="52" height="52"
          rx="5" fill="#f1ede6" class="outer border"/>
    
    <!-- Outer Fill -->
    <rect x="244" y="1"
          width="52" height="52"
          rx="5" fill="#f1ede6"/>
    

    
      <!-- Inner Border -->
      <rect x="250" y="4"
            width="40" height="40"
            rx="5" fill="#fffef7" class="inner border"/>
      
      <!-- Inner Fill -->
      <rect x="250" y="4"
            width="40" height="40"
            rx="5" fill="#fffef7"/>
      
      

     
   
  </g>

  <g class='  keycap'
  >

  
    <!-- Outer Border -->
    <rect x="298" y="1"
          width="52" height="52"
          rx="5" fill="#f1ede6" class="outer border"/>
    
    <!-- Outer Fill -->
    <rect x="298" y="1"
          width="52" height="52"
          rx="5" fill="#f1ede6"/>
    

    
      <!-- Inner Border -->
      <rect x="304" y="4"
            width="40" height="40"
            rx="5" fill="#fffef7" class="inner border"/>
      
      <!-- Inner Fill -->
      <rect x="304" y="4"
            width="40" height="40"
            rx="5" fill="#fffef7"/>
      
      

     
   
  </g>

  <g class='  keycap'
  >

  
    <!-- Outer Border -->
    <rect x="352" y="1"
          width="52" height="52"
          rx="5" fill="#f1ede6" class="outer border"/>
    
    <!-- Outer Fill -->
    <rect x="352" y="1"
          width="52" height="52"
          rx="5" fill="#f1ede6"/>
    

    
      <!-- Inner Border -->
      <rect x="358" y="4"
            width="40" height="40"
            rx="5" fill="#fffef7" class="inner border"/>
      
      <!-- Inner Fill -->
      <rect x="358" y="4"
            width="40" height="40"
            rx="5" fill="#fffef7"/>
      
      

     
   
  </g>

  <g class='  keycap'
  >

  
    <!-- Outer Border -->
    <rect x="406" y="1"
          width="52" height="52"
          rx="5" fill="#f1ede6" class="outer border"/>
    
    <!-- Outer Fill -->
    <rect x="406" y="1"
          width="52" height="52"
          rx="5" fill="#f1ede6"/>
    

    
      <!-- Inner Border -->
      <rect x="412" y="4"
            width="40" height="40"
            rx="5" fill="#fffef7" class="inner border"/>
      
      <!-- Inner Fill -->
      <rect x="412" y="4"
            width="40" height="40"
            rx="5" fill="#fffef7"/>
      
      

     
   
  </g>

  <g class='  keycap'
  >

  
    <!-- Outer Border -->
    <rect x="460" y="1"
          width="52" height="52"
          rx="5" fill="#f1ede6" class="outer border"/>
    
    <!-- Outer Fill -->
    <rect x="460" y="1"
          width="52" height="52"
          rx="5" fill="#f1ede6"/>
    

    
      <!-- Inner Border -->
      <rect x="466" y="4"
            width="40" height="40"
            rx="5" fill="#fffef7" class="inner border"/>
      
      <!-- Inner Fill -->
      <rect x="466" y="4"
            width="40" height="40"
            rx="5" fill="#fffef7"/>
      
      

     
   
  </g>

  <g class='  keycap'
  >

  
    <!-- Outer Border -->
    <rect x="514" y="1"
          width="52" height="52"
          rx="5" fill="#f1ede6" class="outer border"/>
    
    <!-- Outer Fill -->
    <rect x="514" y="1"
          width="52" height="52"
          rx="5" fill="#f1ede6"/>
    

    
      <!-- Inner Border -->
      <rect x="520" y="4"
            width="40" height="40"
            rx="5" fill="#fffef7" class="inner border"/>
      
      <!-- Inner Fill -->
      <rect x="520" y="4"
            width="40" height="40"
            rx="5" fill="#fffef7"/>
      
      

     
   
  </g>

  <g class='  keycap'
  >

  
    <!-- Outer Border -->
    <rect x="568" y="1"
          width="52" height="52"
          rx="5" fill="#f1ede6" class="outer border"/>
    
    <!-- Outer Fill -->
    <rect x="568" y="1"
          width="52" height="52"
          rx="5" fill="#f1ede6"/>
    

    
      <!-- Inner Border -->
      <rect x="574" y="4"
            width="40" height="40"
            rx="5" fill="#fffef7" class="inner border"/>
      
      <!-- Inner Fill -->
      <rect x="574" y="4"
            width="40" height="40"
            rx="5" fill="#fffef7"/>
      
      

     
   
  </g>

  <g class='  keycap'
  >

  
    <!-- Outer Border -->
    <rect x="622" y="1"
          width="52" height="52"
          rx="5" fill="#f1ede6" class="outer border"/>
    
    <!-- Outer Fill -->
    <rect x="622" y="1"
          width="52" height="52"
          rx="5" fill="#f1ede6"/>
    

    
      <!-- Inner Border -->
      <rect x="628" y="4"
            width="40" height="40"
            rx="5" fill="#fffef7" class="inner border"/>
      
      <!-- Inner Fill -->
      <rect x="628" y="4"
            width="40" height="40"
            rx="5" fill="#fffef7"/>
      
      

     
   
  </g>

  <g class='  keycap'
  >

  
    <!-- Outer Border -->
    <rect x="676" y="1"
          width="52" height="52"
          rx="5" fill="#f1ede6" class="outer border"/>
    
    <!-- Outer Fill -->
    <rect x="676" y="1"
          width="52" height="52"
          rx="5" fill="#f1ede6"/>
    

    
      <!-- Inner Border -->
      <rect x="682" y="4"
            width="40" height="40"
            rx="5" fill="#fffef7" class="inner border"/>
      
      <!-- Inner Fill -->
      <rect x="682" y="4"
            width="40" height="40"
            rx="5" fill="#fffef7"/>
      
      

     
   
  </g>

  <g class='  keycap'
  >

  
    <!-- Outer Border -->
    <rect x="730" y="1"
          width="52" height="52"
          rx="5" fill="#f1ede6" class="outer border"/>
    
    <!-- Outer Fill -->
    <rect x="730" y="1"
          width="52" height="52"
          rx="5" fill="#f1ede6"/>
    

    
      <!-- Inner Border -->
      <rect x="736" y="4"
            width="40" height="40"
            rx="5" fill="#fffef7" class="inner border"/>
      
      <!-- Inner Fill -->
      <rect x="736" y="4"
            width="40" height="40"
            rx="5" fill="#fffef7"/>
      
      

     
   
  </g>

  <g class='  keycap'
  >

  
    <!-- Outer Border -->
    <rect x="811" y="1"
          width="52" height="52"
          rx="5" fill="#d8db7d" class="outer border"/>
    
    <!-- Outer Fill -->
    <rect x="811" y="1"
          width="52" height="52"
          rx="5" fill="#d8db7d"/>
    

    
      <!-- Inner Border -->
      <rect x="817" y="4"
            width="40" height="40"
            rx="5" fill="#ffffa4" class="inner border"/>
      
      <!-- Inner Fill -->
      <rect x="817" y="4"
            width="40" height="40"
            rx="5" fill="#ffffa4"/>
      
      

     
   
  </g>

  <g class='  keycap'
  >

  
    <!-- Outer Border -->
    <rect x="865" y="1"
          width="52" height="52"
          rx="5" fill="#d8db7d" class="outer border"/>
    
    <!-- Outer Fill -->
    <rect x="865" y="1"
          width="52" height="52"
          rx="5" fill="#d8db7d"/>
    

    
      <!-- Inner Border -->
      <rect x="871" y="4"
            width="40" height="40"
            rx="5" fill="#ffffa4" class="inner border"/>
      
      <!-- Inner Fill -->
      <rect x="871" y="4"
            width="40" height="40"
            rx="5" fill="#ffffa4"/>
      
      

     
   
  </g>

  <g class='  keycap'
  >

  
    <!-- Outer Border -->
    <rect x="919" y="1"
          width="52" height="52"
          rx="5" fill="#d8db7d" class="outer border"/>
    
    <!-- Outer Fill -->
    <rect x="919" y="1"
          width="52" height="52"
          rx="5" fill="#d8db7d"/>
    

    
      <!-- Inner Border -->
      <rect x="925" y="4"
            width="40" height="40"
            rx="5" fill="#ffffa4" class="inner border"/>
      
      <!-- Inner Fill -->
      <rect x="925" y="4"
            width="40" height="40"
            rx="5" fill="#ffffa4"/>
      
      

     
   
  </g>

  <g class='  keycap'
  >

  
    <!-- Outer Border -->
    <rect x="1" y="55"
          width="52" height="52"
          rx="5" fill="#91de85" class="outer border"/>
    
    <!-- Outer Fill -->
    <rect x="1" y="55"
          width="52" height="52"
          rx="5" fill="#91de85"/>
    

    
      <!-- Inner Border -->
      <rect x="7" y="58"
            width="40" height="40"
            rx="5" fill="#c1ffb3" class="inner border"/>
      
      <!-- Inner Fill -->
      <rect x="7" y="58"
            width="40" height="40"
            rx="5" fill="#c1ffb3"/>
      
      

     
   
  </g>

  <g class='  keycap'
  >

  
    <!-- Outer Border -->
    <rect x="55" y="55"
          width="52" height="52"
          rx="5" fill="#91de85" class="outer border"/>
    
    <!-- Outer Fill -->
    <rect x="55" y="55"
          width="52" height="52"
          rx="5" fill="#91de85"/>
    

    
      <!-- Inner Border -->
      <rect x="61" y="58"
            width="40" height="40"
            rx="5" fill="#c1ffb3" class="inner border"/>
      
      <!-- Inner Fill -->
      <rect x="61" y="58"
            width="40" height="40"
            rx="5" fill="#c1ffb3"/>
      
      

     
   
  </g>

  <g class='  keycap'
  >

  
    <!-- Outer Border -->
    <rect x="109" y="55"
          width="52" height="52"
          rx="5" fill="#91de85" class="outer border"/>
    
    <!-- Outer Fill -->
    <rect x="109" y="55"
          width="52" height="52"
          rx="5" fill="#91de85"/>
    

    
      <!-- Inner Border -->
      <rect x="115" y="58"
            width="40" height="40"
            rx="5" fill="#c1ffb3" class="inner border"/>
      
      <!-- Inner Fill -->
      <rect x="115" y="58"
            width="40" height="40"
            rx="5" fill="#c1ffb3"/>
      
      

     
   
  </g>

  <g class='  keycap'
  >

  
    <!-- Outer Border -->
    <rect x="190" y="55"
          width="52" height="52"
          rx="5" fill="#f1ede6" class="outer border"/>
    
    <!-- Outer Fill -->
    <rect x="190" y="55"
          width="52" height="52"
          rx="5" fill="#f1ede6"/>
    

    
      <!-- Inner Border -->
      <rect x="196" y="58"
            width="40" height="40"
            rx="5" fill="#fffef7" class="inner border"/>
      
      <!-- Inner Fill -->
      <rect x="196" y="58"
            width="40" height="40"
            rx="5" fill="#fffef7"/>
      
      

     
   
  </g>

  <g class='  keycap'
  >

  
    <!-- Outer Border -->
    <rect x="244" y="55"
          width="52" height="52"
          rx="5" fill="#f1ede6" class="outer border"/>
    
    <!-- Outer Fill -->
    <rect x="244" y="55"
          width="52" height="52"
          rx="5" fill="#f1ede6"/>
    

    
      <!-- Inner Border -->
      <rect x="250" y="58"
            width="40" height="40"
            rx="5" fill="#fffef7" class="inner border"/>
      
      <!-- Inner Fill -->
      <rect x="250" y="58"
            width="40" height="40"
            rx="5" fill="#fffef7"/>
      
      

     
   
  </g>

  <g class='  keycap'
  >

  
    <!-- Outer Border -->
    <rect x="298" y="55"
          width="52" height="52"
          rx="5" fill="#f1ede6" class="outer border"/>
    
    <!-- Outer Fill -->
    <rect x="298" y="55"
          width="52" height="52"
          rx="5" fill="#f1ede6"/>
    

    
      <!-- Inner Border -->
      <rect x="304" y="58"
            width="40" height="40"
            rx="5" fill="#fffef7" class="inner border"/>
      
      <!-- Inner Fill -->
      <rect x="304" y="58"
            width="40" height="40"
            rx="5" fill="#fffef7"/>
      
      

     
   
  </g>

  <g class='  keycap'
  >

  
    <!-- Outer Border -->
    <rect x="352" y="55"
          width="52" height="52"
          rx="5" fill="#f1ede6" class="outer border"/>
    
    <!-- Outer Fill -->
    <rect x="352" y="55"
          width="52" height="52"
          rx="5" fill="#f1ede6"/>
    

    
      <!-- Inner Border -->
      <rect x="358" y="58"
            width="40" height="40"
            rx="5" fill="#fffef7" class="inner border"/>
      
      <!-- Inner Fill -->
      <rect x="358" y="58"
            width="40" height="40"
            rx="5" fill="#fffef7"/>
      
      

     
   
  </g>

  <g class='  keycap'
  >

  
    <!-- Outer Border -->
    <rect x="406" y="55"
          width="52" height="52"
          rx="5" fill="#f1ede6" class="outer border"/>
    
    <!-- Outer Fill -->
    <rect x="406" y="55"
          width="52" height="52"
          rx="5" fill="#f1ede6"/>
    

    
      <!-- Inner Border -->
      <rect x="412" y="58"
            width="40" height="40"
            rx="5" fill="#fffef7" class="inner border"/>
      
      <!-- Inner Fill -->
      <rect x="412" y="58"
            width="40" height="40"
            rx="5" fill="#fffef7"/>
      
      

     
   
  </g>

  <g class='  keycap'
  >

  
    <!-- Outer Border -->
    <rect x="460" y="55"
          width="52" height="52"
          rx="5" fill="#f1ede6" class="outer border"/>
    
    <!-- Outer Fill -->
    <rect x="460" y="55"
          width="52" height="52"
          rx="5" fill="#f1ede6"/>
    

    
      <!-- Inner Border -->
      <rect x="466" y="58"
            width="40" height="40"
            rx="5" fill="#fffef7" class="inner border"/>
      
      <!-- Inner Fill -->
      <rect x="466" y="58"
            width="40" height="40"
            rx="5" fill="#fffef7"/>
      
      

     
   
  </g>

  <g class='  keycap'
  >

  
    <!-- Outer Border -->
    <rect x="514" y="55"
          width="52" height="52"
          rx="5" fill="#f1ede6" class="outer border"/>
    
    <!-- Outer Fill -->
    <rect x="514" y="55"
          width="52" height="52"
          rx="5" fill="#f1ede6"/>
    

    
      <!-- Inner Border -->
      <rect x="520" y="58"
            width="40" height="40"
            rx="5" fill="#fffef7" class="inner border"/>
      
      <!-- Inner Fill -->
      <rect x="520" y="58"
            width="40" height="40"
            rx="5" fill="#fffef7"/>
      
      

     
   
  </g>

  <g class='  keycap'
  >

  
    <!-- Outer Border -->
    <rect x="568" y="55"
          width="52" height="52"
          rx="5" fill="#f1ede6" class="outer border"/>
    
    <!-- Outer Fill -->
    <rect x="568" y="55"
          width="52" height="52"
          rx="5" fill="#f1ede6"/>
    

    
      <!-- Inner Border -->
      <rect x="574" y="58"
            width="40" height="40"
            rx="5" fill="#fffef7" class="inner border"/>
      
      <!-- Inner Fill -->
      <rect x="574" y="58"
            width="40" height="40"
            rx="5" fill="#fffef7"/>
      
      

     
   
  </g>

  <g class='  keycap'
  >

  
    <!-- Outer Border -->
    <rect x="622" y="55"
          width="52" height="52"
          rx="5" fill="#f1ede6" class="outer border"/>
    
    <!-- Outer Fill -->
    <rect x="622" y="55"
          width="52" height="52"
          rx="5" fill="#f1ede6"/>
    

    
      <!-- Inner Border -->
      <rect x="628" y="58"
            width="40" height="40"
            rx="5" fill="#fffef7" class="inner border"/>
      
      <!-- Inner Fill -->
      <rect x="628" y="58"
            width="40" height="40"
            rx="5" fill="#fffef7"/>
      
      

     
   
  </g>

  <g class='  keycap'
  >

  
    <!-- Outer Border -->
    <rect x="676" y="55"
          width="52" height="52"
          rx="5" fill="#f1ede6" class="outer border"/>
    
    <!-- Outer Fill -->
    <rect x="676" y="55"
          width="52" height="52"
          rx="5" fill="#f1ede6"/>
    

    
      <!-- Inner Border -->
      <rect x="682" y="58"
            width="40" height="40"
            rx="5" fill="#fffef7" class="inner border"/>
      
      <!-- Inner Fill -->
      <rect x="682" y="58"
            width="40" height="40"
            rx="5" fill="#fffef7"/>
      
      

     
   
  </g>

  <g class='  keycap'
  >

  
    <!-- Outer Border -->
    <rect x="730" y="55"
          width="52" height="52"
          rx="5" fill="#f1ede6" class="outer border"/>
    
    <!-- Outer Fill -->
    <rect x="730" y="55"
          width="52" height="52"
          rx="5" fill="#f1ede6"/>
    

    
      <!-- Inner Border -->
      <rect x="736" y="58"
            width="40" height="40"
            rx="5" fill="#fffef7" class="inner border"/>
      
      <!-- Inner Fill -->
      <rect x="736" y="58"
            width="40" height="40"
            rx="5" fill="#fffef7"/>
      
      

     
   
  </g>

  <g class='  keycap'
  >

  
    <!-- Outer Border -->
    <rect x="811" y="55"
          width="52" height="52"
          rx="5" fill="#d8db7d" class="outer border"/>
    
    <!-- Outer Fill -->
    <rect x="811" y="55"
          width="52" height="52"
          rx="5" fill="#d8db7d"/>
    

    
      <!-- Inner Border -->
      <rect x="817" y="58"
            width="40" height="40"
            rx="5" fill="#ffffa4" class="inner border"/>
      
      <!-- Inner Fill -->
      <rect x="817" y="58"
            width="40" height="40"
            rx="5" fill="#ffffa4"/>
      
      

     
   
  </g>

  <g class='  keycap'
  >

  
    <!-- Outer Border -->
    <rect x="865" y="55"
          width="52" height="52"
          rx="5" fill="#d8db7d" class="outer border"/>
    
    <!-- Outer Fill -->
    <rect x="865" y="55"
          width="52" height="52"
          rx="5" fill="#d8db7d"/>
    

    
      <!-- Inner Border -->
      <rect x="871" y="58"
            width="40" height="40"
            rx="5" fill="#ffffa4" class="inner border"/>
      
      <!-- Inner Fill -->
      <rect x="871" y="58"
            width="40" height="40"
            rx="5" fill="#ffffa4"/>
      
      

     
   
  </g>

  <g class='  keycap'
  >

  
    <!-- Outer Border -->
    <rect x="919" y="55"
          width="52" height="52"
          rx="5" fill="#d8db7d" class="outer border"/>
    
    <!-- Outer Fill -->
    <rect x="919" y="55"
          width="52" height="52"
          rx="5" fill="#d8db7d"/>
    

    
      <!-- Inner Border -->
      <rect x="925" y="58"
            width="40" height="40"
            rx="5" fill="#ffffa4" class="inner border"/>
      
      <!-- Inner Fill -->
      <rect x="925" y="58"
            width="40" height="40"
            rx="5" fill="#ffffa4"/>
      
      

     
   
  </g>

  <g class='  keycap'
  >

  
    <!-- Outer Border -->
    <rect x="1" y="109"
          width="52" height="52"
          rx="5" fill="#91de85" class="outer border"/>
    
    <!-- Outer Fill -->
    <rect x="1" y="109"
          width="52" height="52"
          rx="5" fill="#91de85"/>
    

    
      <!-- Inner Border -->
      <rect x="7" y="112"
            width="40" height="40"
            rx="5" fill="#c1ffb3" class="inner border"/>
      
      <!-- Inner Fill -->
      <rect x="7" y="112"
            width="40" height="40"
            rx="5" fill="#c1ffb3"/>
      
      

     
   
  </g>

  <g class='  keycap'
  >

  
    <!-- Outer Border -->
    <rect x="55" y="109"
          width="52" height="52"
          rx="5" fill="#91de85" class="outer border"/>
    
    <!-- Outer Fill -->
    <rect x="55" y="109"
          width="52" height="52"
          rx="5" fill="#91de85"/>
    

    
      <!-- Inner Border -->
      <rect x="61" y="112"
            width="40" height="40"
            rx="5" fill="#c1ffb3" class="inner border"/>
      
      <!-- Inner Fill -->
      <rect x="61" y="112"
            width="40" height="40"
            rx="5" fill="#c1ffb3"/>
      
      

     
   
  </g>

  <g class='  keycap'
  >

  
    <!-- Outer Border -->
    <rect x="109" y="109"
          width="52" height="52"
          rx="5" fill="#91de85" class="outer border"/>
    
    <!-- Outer Fill -->
    <rect x="109" y="109"
          width="52" height="52"
          rx="5" fill="#91de85"/>
    

    
      <!-- Inner Border -->
      <rect x="115" y="112"
            width="40" height="40"
            rx="5" fill="#c1ffb3" class="inner border"/>
      
      <!-- Inner Fill -->
      <rect x="115" y="112"
            width="40" height="40"
            rx="5" fill="#c1ffb3"/>
      
      

     
   
  </g>

  <g class='  keycap'
  >

  
    <!-- Outer Border -->
    <rect x="190" y="109"
          width="79" height="52"
          rx="5" fill="#f1ede6" class="outer border"/>
    
    <!-- Outer Fill -->
    <rect x="190" y="109"
          width="79" height="52"
          rx="5" fill="#f1ede6"/>
    

    
      <!-- Inner Border -->
      <rect x="196" y="112"
            width="67" height="40"
            rx="5" fill="#fffef7" class="inner border"/>
      
      <!-- Inner Fill -->
      <rect x="196" y="112"
            width="67" height="40"
            rx="5" fill="#fffef7"/>
      
      

     
   
  </g>

  <g class='  keycap'
  >

  
    <!-- Outer Border -->
    <rect x="271" y="109"
          width="52" height="52"
          rx="5" fill="#f1ede6" class="outer border"/>
    
    <!-- Outer Fill -->
    <rect x="271" y="109"
          width="52" height="52"
          rx="5" fill="#f1ede6"/>
    

    
      <!-- Inner Border -->
      <rect x="277" y="112"
            width="40" height="40"
            rx="5" fill="#fffef7" class="inner border"/>
      
      <!-- Inner Fill -->
      <rect x="277" y="112"
            width="40" height="40"
            rx="5" fill="#fffef7"/>
      
      

     
   
  </g>

  <g class='  keycap'
  >

  
    <!-- Outer Border -->
    <rect x="325" y="109"
          width="52" height="52"
          rx="5" fill="#f1ede6" class="outer border"/>
    
    <!-- Outer Fill -->
    <rect x="325" y="109"
          width="52" height="52"
          rx="5" fill="#f1ede6"/>
    

    
      <!-- Inner Border -->
      <rect x="331" y="112"
            width="40" height="40"
            rx="5" fill="#fffef7" class="inner border"/>
      
      <!-- Inner Fill -->
      <rect x="331" y="112"
            width="40" height="40"
            rx="5" fill="#fffef7"/>
      
      

     
   
  </g>

  <g class='  keycap'
  >

  
    <!-- Outer Border -->
    <rect x="379" y="109"
          width="52" height="52"
          rx="5" fill="#f1ede6" class="outer border"/>
    
    <!-- Outer Fill -->
    <rect x="379" y="109"
          width="52" height="52"
          rx="5" fill="#f1ede6"/>
    

    
      <!-- Inner Border -->
      <rect x="385" y="112"
            width="40" height="40"
            rx="5" fill="#fffef7" class="inner border"/>
      
      <!-- Inner Fill -->
      <rect x="385" y="112"
            width="40" height="40"
            rx="5" fill="#fffef7"/>
      
      

     
   
  </g>

  <g class='  keycap'
  >

  
    <!-- Outer Border -->
    <rect x="433" y="109"
          width="52" height="52"
          rx="5" fill="#f1ede6" class="outer border"/>
    
    <!-- Outer Fill -->
    <rect x="433" y="109"
          width="52" height="52"
          rx="5" fill="#f1ede6"/>
    

    
      <!-- Inner Border -->
      <rect x="439" y="112"
            width="40" height="40"
            rx="5" fill="#fffef7" class="inner border"/>
      
      <!-- Inner Fill -->
      <rect x="439" y="112"
            width="40" height="40"
            rx="5" fill="#fffef7"/>
      
      

     
   
  </g>

  <g class='  keycap'
  >

  
    <!-- Outer Border -->
    <rect x="487" y="109"
          width="52" height="52"
          rx="5" fill="#f1ede6" class="outer border"/>
    
    <!-- Outer Fill -->
    <rect x="487" y="109"
          width="52" height="52"
          rx="5" fill="#f1ede6"/>
    

    
      <!-- Inner Border -->
      <rect x="493" y="112"
            width="40" height="40"
            rx="5" fill="#fffef7" class="inner border"/>
      
      <!-- Inner Fill -->
      <rect x="493" y="112"
            width="40" height="40"
            rx="5" fill="#fffef7"/>
      
      

     
   
  </g>

  <g class='  keycap'
  >

  
    <!-- Outer Border -->
    <rect x="541" y="109"
          width="52" height="52"
          rx="5" fill="#f1ede6" class="outer border"/>
    
    <!-- Outer Fill -->
    <rect x="541" y="109"
          width="52" height="52"
          rx="5" fill="#f1ede6"/>
    

    
      <!-- Inner Border -->
      <rect x="547" y="112"
            width="40" height="40"
            rx="5" fill="#fffef7" class="inner border"/>
      
      <!-- Inner Fill -->
      <rect x="547" y="112"
            width="40" height="40"
            rx="5" fill="#fffef7"/>
      
      

     
   
  </g>

  <g class='  keycap'
  >

  
    <!-- Outer Border -->
    <rect x="595" y="109"
          width="52" height="52"
          rx="5" fill="#f1ede6" class="outer border"/>
    
    <!-- Outer Fill -->
    <rect x="595" y="109"
          width="52" height="52"
          rx="5" fill="#f1ede6"/>
    

    
      <!-- Inner Border -->
      <rect x="601" y="112"
            width="40" height="40"
            rx="5" fill="#fffef7" class="inner border"/>
      
      <!-- Inner Fill -->
      <rect x="601" y="112"
            width="40" height="40"
            rx="5" fill="#fffef7"/>
      
      

     
   
  </g>

  <g class='  keycap'
  >

  
    <!-- Outer Border -->
    <rect x="649" y="109"
          width="52" height="52"
          rx="5" fill="#f1ede6" class="outer border"/>
    
    <!-- Outer Fill -->
    <rect x="649" y="109"
          width="52" height="52"
          rx="5" fill="#f1ede6"/>
    

    
      <!-- Inner Border -->
      <rect x="655" y="112"
            width="40" height="40"
            rx="5" fill="#fffef7" class="inner border"/>
      
      <!-- Inner Fill -->
      <rect x="655" y="112"
            width="40" height="40"
            rx="5" fill="#fffef7"/>
      
      

     
   
  </g>

  <g class='  keycap'
  >

  
    <!-- Outer Border -->
    <rect x="703" y="109"
          width="79" height="52"
          rx="5" fill="#f1ede6" class="outer border"/>
    
    <!-- Outer Fill -->
    <rect x="703" y="109"
          width="79" height="52"
          rx="5" fill="#f1ede6"/>
    

    
      <!-- Inner Border -->
      <rect x="709" y="112"
            width="67" height="40"
            rx="5" fill="#fffef7" class="inner border"/>
      
      <!-- Inner Fill -->
      <rect x="709" y="112"
            width="67" height="40"
            rx="5" fill="#fffef7"/>
      
      

     
   
  </g>

  <g class='  keycap'
  >

  
    <!-- Outer Border -->
    <rect x="811" y="109"
          width="52" height="52"
          rx="5" fill="#d8db7d" class="outer border"/>
    
    <!-- Outer Fill -->
    <rect x="811" y="109"
          width="52" height="52"
          rx="5" fill="#d8db7d"/>
    

    
      <!-- Inner Border -->
      <rect x="817" y="112"
            width="40" height="40"
            rx="5" fill="#ffffa4" class="inner border"/>
      
      <!-- Inner Fill -->
      <rect x="817" y="112"
            width="40" height="40"
            rx="5" fill="#ffffa4"/>
      
      

     
   
  </g>

  <g class='  keycap'
  >

  
    <!-- Outer Border -->
    <rect x="865" y="109"
          width="52" height="52"
          rx="5" fill="#d8db7d" class="outer border"/>
    
    <!-- Outer Fill -->
    <rect x="865" y="109"
          width="52" height="52"
          rx="5" fill="#d8db7d"/>
    

    
      <!-- Inner Border -->
      <rect x="871" y="112"
            width="40" height="40"
            rx="5" fill="#ffffa4" class="inner border"/>
      
      <!-- Inner Fill -->
      <rect x="871" y="112"
            width="40" height="40"
            rx="5" fill="#ffffa4"/>
      
      

     
   
  </g>

  <g class='  keycap'
  >

  
    <!-- Outer Border -->
    <rect x="919" y="109"
          width="52" height="52"
          rx="5" fill="#d8db7d" class="outer border"/>
    
    <!-- Outer Fill -->
    <rect x="919" y="109"
          width="52" height="52"
          rx="5" fill="#d8db7d"/>
    

    
      <!-- Inner Border -->
      <rect x="925" y="112"
            width="40" height="40"
            rx="5" fill="#ffffa4" class="inner border"/>
      
      <!-- Inner Fill -->
      <rect x="925" y="112"
            width="40" height="40"
            rx="5" fill="#ffffa4"/>
      
      

     
   
  </g>

  <g class='  keycap'
  >

  
    <!-- Outer Border -->
    <rect x="190" y="163"
          width="52" height="52"
          rx="5" fill="#b17dc7" class="outer border"/>
    
    <!-- Outer Fill -->
    <rect x="190" y="163"
          width="52" height="52"
          rx="5" fill="#b17dc7"/>
    

    
      <!-- Inner Border -->
      <rect x="196" y="166"
            width="40" height="40"
            rx="5" fill="#d49eea" class="inner border"/>
      
      <!-- Inner Fill -->
      <rect x="196" y="166"
            width="40" height="40"
            rx="5" fill="#d49eea"/>
      
      

     
   
  </g>

  <g class='  keycap'
  >

  
    <!-- Outer Border -->
    <rect x="298" y="163"
          width="52" height="52"
          rx="5" fill="#c47e8f" class="outer border"/>
    
    <!-- Outer Fill -->
    <rect x="298" y="163"
          width="52" height="52"
          rx="5" fill="#c47e8f"/>
    

    
      <!-- Inner Border -->
      <rect x="304" y="166"
            width="40" height="40"
            rx="5" fill="#e89fb0" class="inner border"/>
      
      <!-- Inner Fill -->
      <rect x="304" y="166"
            width="40" height="40"
            rx="5" fill="#e89fb0"/>
      
      

     
   
  </g>

  <g class='  keycap'
  >

  
    <!-- Outer Border -->
    <rect x="352" y="163"
          width="119.5" height="52"
          rx="5" fill="#c47e8f" class="outer border"/>
    
    <!-- Outer Fill -->
    <rect x="352" y="163"
          width="119.5" height="52"
          rx="5" fill="#c47e8f"/>
    

    
      <!-- Inner Border -->
      <rect x="358" y="166"
            width="107.5" height="40"
            rx="5" fill="#e89fb0" class="inner border"/>
      
      <!-- Inner Fill -->
      <rect x="358" y="166"
            width="107.5" height="40"
            rx="5" fill="#e89fb0"/>
      
      

     
   
  </g>

  <g class='  keycap'
  >

  
    <!-- Outer Border -->
    <rect x="473.5" y="163"
          width="146.5" height="52"
          rx="5" fill="#c47e8f" class="outer border"/>
    
    <!-- Outer Fill -->
    <rect x="473.5" y="163"
          width="146.5" height="52"
          rx="5" fill="#c47e8f"/>
    

    
      <!-- Inner Border -->
      <rect x="479.5" y="166"
            width="134.5" height="40"
            rx="5" fill="#e89fb0" class="inner border"/>
      
      <!-- Inner Fill -->
      <rect x="479.5" y="166"
            width="134.5" height="40"
            rx="5" fill="#e89fb0"/>
      
      

     
   
  </g>

  <g class='  keycap'
  >

  
    <!-- Outer Border -->
    <rect x="622" y="163"
          width="52" height="52"
          rx="5" fill="#c47e8f" class="outer border"/>
    
    <!-- Outer Fill -->
    <rect x="622" y="163"
          width="52" height="52"
          rx="5" fill="#c47e8f"/>
    

    
      <!-- Inner Border -->
      <rect x="628" y="166"
            width="40" height="40"
            rx="5" fill="#e89fb0" class="inner border"/>
      
      <!-- Inner Fill -->
      <rect x="628" y="166"
            width="40" height="40"
            rx="5" fill="#e89fb0"/>
      
      

     
   
  </g>

  <g class='  keycap'
  >

  
    <!-- Outer Border -->
    <rect x="730" y="163"
          width="52" height="52"
          rx="5" fill="#b17dc7" class="outer border"/>
    
    <!-- Outer Fill -->
    <rect x="730" y="163"
          width="52" height="52"
          rx="5" fill="#b17dc7"/>
    

    
      <!-- Inner Border -->
      <rect x="736" y="166"
            width="40" height="40"
            rx="5" fill="#d49eea" class="inner border"/>
      
      <!-- Inner Fill -->
      <rect x="736" y="166"
            width="40" height="40"
            rx="5" fill="#d49eea"/>
      
      

     
   
  </g>

  <g class='  keycap'
  >

  
    <!-- Outer Border -->
    <rect x="298" y="217"
          width="376" height="52"
          rx="5" fill="#6db3d1" class="outer border"/>
    
    <!-- Outer Fill -->
    <rect x="298" y="217"
          width="376" height="52"
          rx="5" fill="#6db3d1"/>
    

    
      <!-- Inner Border -->
      <rect x="304" y="220"
            width="364" height="40"
            rx="5" fill="#96dbfa" class="inner border"/>
      
      <!-- Inner Fill -->
      <rect x="304" y="220"
            width="364" height="40"
            rx="5" fill="#96dbfa"/>
      
      

     
   
  </g>

      </g>
    </g>
  </svg>
