  0
SECTION
  2
HEADER
  9
$ACADVER
  1
AC1009
  9
$EXTMIN
 10
0.0
 20
0.0
 30
0.0
  9
$EXTMAX
 10
1000.0
 20
1000.0
 30
0.0
  9
$FILLMODE
 70
 0
  9
$SPLFRAME
 70
 1
  0
ENDSEC
  0
SECTION
  2
TABLES
  0
TABLE
  2
LAYER
 70
1
  0
LAYER
  2
0
 70
     0
 62
     7
  6
CONTINUOUS
  0
ENDTAB
  0
ENDSEC
  0
SECTION
  2
ENTITIES
  0
LINE
  8
0
 62
     0
 10
0.0950846
 20
78.5742
 30
0.0
 11
278.321
 21
78.5742
 31
0.0
  0
LINE
  8
0
 62
     0
 10
278.321
 20
78.5742
 30
0.0
 11
278.321
 21
0.373447
 31
0.0
  0
LINE
  8
0
 62
     0
 10
278.321
 20
0.373447
 30
0.0
 11
0.0950846
 21
0.373447
 31
0.0
  0
LINE
  8
0
 62
     0
 10
0.0950846
 20
0.373447
 30
0.0
 11
0.0950846
 21
78.5742
 31
0.0
  0
LINE
  8
0
 62
     0
 10
165.545
 20
17.8993
 30
0.0
 11
165.545
 21
16.9003
 31
0.0
  0
LINE
  8
0
 62
     0
 10
165.545
 20
16.9003
 30
0.0
 11
164.743
 21
16.9003
 31
0.0
  0
LINE
  8
0
 62
     0
 10
164.743
 20
16.9003
 30
0.0
 11
164.743
 21
13.8011
 31
0.0
  0
LINE
  8
0
 62
     0
 10
164.743
 20
13.8011
 30
0.0
 11
165.545
 21
13.8011
 31
0.0
  0
LINE
  8
0
 62
     0
 10
165.545
 20
13.8011
 30
0.0
 11
165.545
 21
13.2002
 31
0.0
  0
LINE
  8
0
 62
     0
 10
165.545
 20
13.2002
 30
0.0
 11
118.769
 21
13.2002
 31
0.0
  0
LINE
  8
0
 62
     0
 10
118.769
 20
13.2002
 30
0.0
 11
118.769
 21
16.4303
 31
0.0
  0
LINE
  8
0
 62
     0
 10
118.769
 20
16.4303
 30
0.0
 11
112.018
 21
16.4303
 31
0.0
  0
LINE
  8
0
 62
     0
 10
112.018
 20
16.4303
 30
0.0
 11
112.018
 21
13.2002
 31
0.0
  0
LINE
  8
0
 62
     0
 10
112.018
 20
13.2002
 30
0.0
 11
111.194
 21
13.2002
 31
0.0
  0
LINE
  8
0
 62
     0
 10
111.194
 20
13.2002
 30
0.0
 11
111.194
 21
10.4001
 31
0.0
  0
LINE
  8
0
 62
     0
 10
111.194
 20
10.4001
 30
0.0
 11
112.018
 21
10.4001
 31
0.0
  0
LINE
  8
0
 62
     0
 10
112.018
 20
10.4001
 30
0.0
 11
112.018
 21
4.12997
 31
0.0
  0
LINE
  8
0
 62
     0
 10
112.018
 20
4.12997
 30
0.0
 11
113.743
 21
4.12997
 31
0.0
  0
LINE
  8
0
 62
     0
 10
113.743
 20
4.12997
 30
0.0
 11
113.743
 21
2.92971
 31
0.0
  0
LINE
  8
0
 62
     0
 10
113.743
 20
2.92971
 30
0.0
 11
117.044
 21
2.92971
 31
0.0
  0
LINE
  8
0
 62
     0
 10
117.044
 20
2.92971
 30
0.0
 11
117.044
 21
4.12997
 31
0.0
  0
LINE
  8
0
 62
     0
 10
117.044
 20
4.12997
 30
0.0
 11
118.769
 21
4.12997
 31
0.0
  0
LINE
  8
0
 62
     0
 10
118.769
 20
4.12997
 30
0.0
 11
118.769
 21
8.60033
 31
0.0
  0
LINE
  8
0
 62
     0
 10
118.769
 20
8.60033
 30
0.0
 11
165.545
 21
8.60033
 31
0.0
  0
LINE
  8
0
 62
     0
 10
165.545
 20
8.60033
 30
0.0
 11
165.545
 21
7.99952
 31
0.0
  0
LINE
  8
0
 62
     0
 10
165.545
 20
7.99952
 30
0.0
 11
164.743
 21
7.99952
 31
0.0
  0
LINE
  8
0
 62
     0
 10
164.743
 20
7.99952
 30
0.0
 11
164.743
 21
4.9003
 31
0.0
  0
LINE
  8
0
 62
     0
 10
164.743
 20
4.9003
 30
0.0
 11
165.545
 21
4.9003
 31
0.0
  0
LINE
  8
0
 62
     0
 10
165.545
 20
4.9003
 30
0.0
 11
165.545
 21
3.89985
 31
0.0
  0
LINE
  8
0
 62
     0
 10
165.545
 20
3.89985
 30
0.0
 11
179.544
 21
3.89985
 31
0.0
  0
LINE
  8
0
 62
     0
 10
179.544
 20
3.89985
 30
0.0
 11
179.544
 21
4.9003
 31
0.0
  0
LINE
  8
0
 62
     0
 10
179.544
 20
4.9003
 30
0.0
 11
180.344
 21
4.9003
 31
0.0
  0
LINE
  8
0
 62
     0
 10
180.344
 20
4.9003
 30
0.0
 11
180.344
 21
7.99952
 31
0.0
  0
LINE
  8
0
 62
     0
 10
180.344
 20
7.99952
 30
0.0
 11
179.544
 21
7.99952
 31
0.0
  0
LINE
  8
0
 62
     0
 10
179.544
 20
7.99952
 30
0.0
 11
179.544
 21
8.60033
 31
0.0
  0
LINE
  8
0
 62
     0
 10
179.544
 20
8.60033
 30
0.0
 11
226.319
 21
8.60033
 31
0.0
  0
LINE
  8
0
 62
     0
 10
226.319
 20
8.60033
 30
0.0
 11
226.319
 21
4.12997
 31
0.0
  0
LINE
  8
0
 62
     0
 10
226.319
 20
4.12997
 30
0.0
 11
228.045
 21
4.12997
 31
0.0
  0
LINE
  8
0
 62
     0
 10
228.045
 20
4.12997
 30
0.0
 11
228.045
 21
2.92971
 31
0.0
  0
LINE
  8
0
 62
     0
 10
228.045
 20
2.92971
 30
0.0
 11
231.345
 21
2.92971
 31
0.0
  0
LINE
  8
0
 62
     0
 10
231.345
 20
2.92971
 30
0.0
 11
231.345
 21
4.12997
 31
0.0
  0
LINE
  8
0
 62
     0
 10
231.345
 20
4.12997
 30
0.0
 11
233.069
 21
4.12997
 31
0.0
  0
LINE
  8
0
 62
     0
 10
233.069
 20
4.12997
 30
0.0
 11
233.069
 21
10.4001
 31
0.0
  0
LINE
  8
0
 62
     0
 10
233.069
 20
10.4001
 30
0.0
 11
233.893
 21
10.4001
 31
0.0
  0
LINE
  8
0
 62
     0
 10
233.893
 20
10.4001
 30
0.0
 11
233.893
 21
13.2002
 31
0.0
  0
LINE
  8
0
 62
     0
 10
233.893
 20
13.2002
 30
0.0
 11
233.069
 21
13.2002
 31
0.0
  0
LINE
  8
0
 62
     0
 10
233.069
 20
13.2002
 30
0.0
 11
233.069
 21
16.4303
 31
0.0
  0
LINE
  8
0
 62
     0
 10
233.069
 20
16.4303
 30
0.0
 11
226.319
 21
16.4303
 31
0.0
  0
LINE
  8
0
 62
     0
 10
226.319
 20
16.4303
 30
0.0
 11
226.319
 21
13.2002
 31
0.0
  0
LINE
  8
0
 62
     0
 10
226.319
 20
13.2002
 30
0.0
 11
179.544
 21
13.2002
 31
0.0
  0
LINE
  8
0
 62
     0
 10
179.544
 20
13.2002
 30
0.0
 11
179.544
 21
13.8011
 31
0.0
  0
LINE
  8
0
 62
     0
 10
179.544
 20
13.8011
 30
0.0
 11
180.344
 21
13.8011
 31
0.0
  0
LINE
  8
0
 62
     0
 10
180.344
 20
13.8011
 30
0.0
 11
180.344
 21
16.9003
 31
0.0
  0
LINE
  8
0
 62
     0
 10
180.344
 20
16.9003
 30
0.0
 11
179.544
 21
16.9003
 31
0.0
  0
LINE
  8
0
 62
     0
 10
179.544
 20
16.9003
 30
0.0
 11
179.544
 21
17.8993
 31
0.0
  0
LINE
  8
0
 62
     0
 10
179.544
 20
17.8993
 30
0.0
 11
165.545
 21
17.8993
 31
0.0
  0
LINE
  8
0
 62
     0
 10
260.795
 20
17.8993
 30
0.0
 11
260.795
 21
16.9003
 31
0.0
  0
LINE
  8
0
 62
     0
 10
260.795
 20
16.9003
 30
0.0
 11
259.994
 21
16.9003
 31
0.0
  0
LINE
  8
0
 62
     0
 10
259.994
 20
16.9003
 30
0.0
 11
259.994
 21
13.8011
 31
0.0
  0
LINE
  8
0
 62
     0
 10
259.994
 20
13.8011
 30
0.0
 11
260.795
 21
13.8011
 31
0.0
  0
LINE
  8
0
 62
     0
 10
260.795
 20
13.8011
 30
0.0
 11
260.795
 21
7.99952
 31
0.0
  0
LINE
  8
0
 62
     0
 10
260.795
 20
7.99952
 30
0.0
 11
259.994
 21
7.99952
 31
0.0
  0
LINE
  8
0
 62
     0
 10
259.994
 20
7.99952
 30
0.0
 11
259.994
 21
4.9003
 31
0.0
  0
LINE
  8
0
 62
     0
 10
259.994
 20
4.9003
 30
0.0
 11
260.795
 21
4.9003
 31
0.0
  0
LINE
  8
0
 62
     0
 10
260.795
 20
4.9003
 30
0.0
 11
260.795
 21
3.89985
 31
0.0
  0
LINE
  8
0
 62
     0
 10
260.795
 20
3.89985
 30
0.0
 11
274.794
 21
3.89985
 31
0.0
  0
LINE
  8
0
 62
     0
 10
274.794
 20
3.89985
 30
0.0
 11
274.794
 21
4.9003
 31
0.0
  0
LINE
  8
0
 62
     0
 10
274.794
 20
4.9003
 30
0.0
 11
275.594
 21
4.9003
 31
0.0
  0
LINE
  8
0
 62
     0
 10
275.594
 20
4.9003
 30
0.0
 11
275.594
 21
7.99952
 31
0.0
  0
LINE
  8
0
 62
     0
 10
275.594
 20
7.99952
 30
0.0
 11
274.794
 21
7.99952
 31
0.0
  0
LINE
  8
0
 62
     0
 10
274.794
 20
7.99952
 30
0.0
 11
274.794
 21
13.8011
 31
0.0
  0
LINE
  8
0
 62
     0
 10
274.794
 20
13.8011
 30
0.0
 11
275.594
 21
13.8011
 31
0.0
  0
LINE
  8
0
 62
     0
 10
275.594
 20
13.8011
 30
0.0
 11
275.594
 21
16.9003
 31
0.0
  0
LINE
  8
0
 62
     0
 10
275.594
 20
16.9003
 30
0.0
 11
274.794
 21
16.9003
 31
0.0
  0
LINE
  8
0
 62
     0
 10
274.794
 20
16.9003
 30
0.0
 11
274.794
 21
17.8993
 31
0.0
  0
LINE
  8
0
 62
     0
 10
274.794
 20
17.8993
 30
0.0
 11
260.795
 21
17.8993
 31
0.0
  0
LINE
  8
0
 62
     0
 10
70.2952
 20
17.8993
 30
0.0
 11
70.2952
 21
16.9003
 31
0.0
  0
LINE
  8
0
 62
     0
 10
70.2952
 20
16.9003
 30
0.0
 11
69.4944
 21
16.9003
 31
0.0
  0
LINE
  8
0
 62
     0
 10
69.4944
 20
16.9003
 30
0.0
 11
69.4944
 21
13.8011
 31
0.0
  0
LINE
  8
0
 62
     0
 10
69.4944
 20
13.8011
 30
0.0
 11
70.2952
 21
13.8011
 31
0.0
  0
LINE
  8
0
 62
     0
 10
70.2952
 20
13.8011
 30
0.0
 11
70.2952
 21
7.99952
 31
0.0
  0
LINE
  8
0
 62
     0
 10
70.2952
 20
7.99952
 30
0.0
 11
69.4944
 21
7.99952
 31
0.0
  0
LINE
  8
0
 62
     0
 10
69.4944
 20
7.99952
 30
0.0
 11
69.4944
 21
4.9003
 31
0.0
  0
LINE
  8
0
 62
     0
 10
69.4944
 20
4.9003
 30
0.0
 11
70.2952
 21
4.9003
 31
0.0
  0
LINE
  8
0
 62
     0
 10
70.2952
 20
4.9003
 30
0.0
 11
70.2952
 21
3.89985
 31
0.0
  0
LINE
  8
0
 62
     0
 10
70.2952
 20
3.89985
 30
0.0
 11
84.2945
 21
3.89985
 31
0.0
  0
LINE
  8
0
 62
     0
 10
84.2945
 20
3.89985
 30
0.0
 11
84.2945
 21
4.9003
 31
0.0
  0
LINE
  8
0
 62
     0
 10
84.2945
 20
4.9003
 30
0.0
 11
85.0939
 21
4.9003
 31
0.0
  0
LINE
  8
0
 62
     0
 10
85.0939
 20
4.9003
 30
0.0
 11
85.0939
 21
7.99952
 31
0.0
  0
LINE
  8
0
 62
     0
 10
85.0939
 20
7.99952
 30
0.0
 11
84.2945
 21
7.99952
 31
0.0
  0
LINE
  8
0
 62
     0
 10
84.2945
 20
7.99952
 30
0.0
 11
84.2945
 21
13.8011
 31
0.0
  0
LINE
  8
0
 62
     0
 10
84.2945
 20
13.8011
 30
0.0
 11
85.0939
 21
13.8011
 31
0.0
  0
LINE
  8
0
 62
     0
 10
85.0939
 20
13.8011
 30
0.0
 11
85.0939
 21
16.9003
 31
0.0
  0
LINE
  8
0
 62
     0
 10
85.0939
 20
16.9003
 30
0.0
 11
84.2945
 21
16.9003
 31
0.0
  0
LINE
  8
0
 62
     0
 10
84.2945
 20
16.9003
 30
0.0
 11
84.2945
 21
17.8993
 31
0.0
  0
LINE
  8
0
 62
     0
 10
84.2945
 20
17.8993
 30
0.0
 11
70.2952
 21
17.8993
 31
0.0
  0
LINE
  8
0
 62
     0
 10
256.031
 20
36.9492
 30
0.0
 11
256.031
 21
35.9502
 31
0.0
  0
LINE
  8
0
 62
     0
 10
256.031
 20
35.9502
 30
0.0
 11
255.232
 21
35.9502
 31
0.0
  0
LINE
  8
0
 62
     0
 10
255.232
 20
35.9502
 30
0.0
 11
255.232
 21
32.8497
 31
0.0
  0
LINE
  8
0
 62
     0
 10
255.232
 20
32.8497
 30
0.0
 11
256.031
 21
32.8497
 31
0.0
  0
LINE
  8
0
 62
     0
 10
256.031
 20
32.8497
 30
0.0
 11
256.031
 21
27.0495
 31
0.0
  0
LINE
  8
0
 62
     0
 10
256.031
 20
27.0495
 30
0.0
 11
255.232
 21
27.0495
 31
0.0
  0
LINE
  8
0
 62
     0
 10
255.232
 20
27.0495
 30
0.0
 11
255.232
 21
23.9503
 31
0.0
  0
LINE
  8
0
 62
     0
 10
255.232
 20
23.9503
 30
0.0
 11
256.031
 21
23.9503
 31
0.0
  0
LINE
  8
0
 62
     0
 10
256.031
 20
23.9503
 30
0.0
 11
256.031
 21
22.9499
 31
0.0
  0
LINE
  8
0
 62
     0
 10
256.031
 20
22.9499
 30
0.0
 11
270.032
 21
22.9499
 31
0.0
  0
LINE
  8
0
 62
     0
 10
270.032
 20
22.9499
 30
0.0
 11
270.032
 21
23.9503
 31
0.0
  0
LINE
  8
0
 62
     0
 10
270.032
 20
23.9503
 30
0.0
 11
270.831
 21
23.9503
 31
0.0
  0
LINE
  8
0
 62
     0
 10
270.831
 20
23.9503
 30
0.0
 11
270.831
 21
27.0495
 31
0.0
  0
LINE
  8
0
 62
     0
 10
270.831
 20
27.0495
 30
0.0
 11
270.032
 21
27.0495
 31
0.0
  0
LINE
  8
0
 62
     0
 10
270.032
 20
27.0495
 30
0.0
 11
270.032
 21
32.8497
 31
0.0
  0
LINE
  8
0
 62
     0
 10
270.032
 20
32.8497
 30
0.0
 11
270.831
 21
32.8497
 31
0.0
  0
LINE
  8
0
 62
     0
 10
270.831
 20
32.8497
 30
0.0
 11
270.831
 21
35.9502
 31
0.0
  0
LINE
  8
0
 62
     0
 10
270.831
 20
35.9502
 30
0.0
 11
270.032
 21
35.9502
 31
0.0
  0
LINE
  8
0
 62
     0
 10
270.032
 20
35.9502
 30
0.0
 11
270.032
 21
36.9492
 31
0.0
  0
LINE
  8
0
 62
     0
 10
270.032
 20
36.9492
 30
0.0
 11
256.031
 21
36.9492
 31
0.0
  0
LINE
  8
0
 62
     0
 10
232.22
 20
36.9492
 30
0.0
 11
232.22
 21
35.9502
 31
0.0
  0
LINE
  8
0
 62
     0
 10
232.22
 20
35.9502
 30
0.0
 11
231.419
 21
35.9502
 31
0.0
  0
LINE
  8
0
 62
     0
 10
231.419
 20
35.9502
 30
0.0
 11
231.419
 21
32.8497
 31
0.0
  0
LINE
  8
0
 62
     0
 10
231.419
 20
32.8497
 30
0.0
 11
232.22
 21
32.8497
 31
0.0
  0
LINE
  8
0
 62
     0
 10
232.22
 20
32.8497
 30
0.0
 11
232.22
 21
27.0495
 31
0.0
  0
LINE
  8
0
 62
     0
 10
232.22
 20
27.0495
 30
0.0
 11
231.419
 21
27.0495
 31
0.0
  0
LINE
  8
0
 62
     0
 10
231.419
 20
27.0495
 30
0.0
 11
231.419
 21
23.9503
 31
0.0
  0
LINE
  8
0
 62
     0
 10
231.419
 20
23.9503
 30
0.0
 11
232.22
 21
23.9503
 31
0.0
  0
LINE
  8
0
 62
     0
 10
232.22
 20
23.9503
 30
0.0
 11
232.22
 21
22.9499
 31
0.0
  0
LINE
  8
0
 62
     0
 10
232.22
 20
22.9499
 30
0.0
 11
246.219
 21
22.9499
 31
0.0
  0
LINE
  8
0
 62
     0
 10
246.219
 20
22.9499
 30
0.0
 11
246.219
 21
23.9503
 31
0.0
  0
LINE
  8
0
 62
     0
 10
246.219
 20
23.9503
 30
0.0
 11
247.019
 21
23.9503
 31
0.0
  0
LINE
  8
0
 62
     0
 10
247.019
 20
23.9503
 30
0.0
 11
247.019
 21
27.0495
 31
0.0
  0
LINE
  8
0
 62
     0
 10
247.019
 20
27.0495
 30
0.0
 11
246.219
 21
27.0495
 31
0.0
  0
LINE
  8
0
 62
     0
 10
246.219
 20
27.0495
 30
0.0
 11
246.219
 21
32.8497
 31
0.0
  0
LINE
  8
0
 62
     0
 10
246.219
 20
32.8497
 30
0.0
 11
247.019
 21
32.8497
 31
0.0
  0
LINE
  8
0
 62
     0
 10
247.019
 20
32.8497
 30
0.0
 11
247.019
 21
35.9502
 31
0.0
  0
LINE
  8
0
 62
     0
 10
247.019
 20
35.9502
 30
0.0
 11
246.219
 21
35.9502
 31
0.0
  0
LINE
  8
0
 62
     0
 10
246.219
 20
35.9502
 30
0.0
 11
246.219
 21
36.9492
 31
0.0
  0
LINE
  8
0
 62
     0
 10
246.219
 20
36.9492
 30
0.0
 11
232.22
 21
36.9492
 31
0.0
  0
LINE
  8
0
 62
     0
 10
213.17
 20
36.9492
 30
0.0
 11
213.17
 21
35.9502
 31
0.0
  0
LINE
  8
0
 62
     0
 10
213.17
 20
35.9502
 30
0.0
 11
212.369
 21
35.9502
 31
0.0
  0
LINE
  8
0
 62
     0
 10
212.369
 20
35.9502
 30
0.0
 11
212.369
 21
32.8497
 31
0.0
  0
LINE
  8
0
 62
     0
 10
212.369
 20
32.8497
 30
0.0
 11
213.17
 21
32.8497
 31
0.0
  0
LINE
  8
0
 62
     0
 10
213.17
 20
32.8497
 30
0.0
 11
213.17
 21
27.0495
 31
0.0
  0
LINE
  8
0
 62
     0
 10
213.17
 20
27.0495
 30
0.0
 11
212.369
 21
27.0495
 31
0.0
  0
LINE
  8
0
 62
     0
 10
212.369
 20
27.0495
 30
0.0
 11
212.369
 21
23.9503
 31
0.0
  0
LINE
  8
0
 62
     0
 10
212.369
 20
23.9503
 30
0.0
 11
213.17
 21
23.9503
 31
0.0
  0
LINE
  8
0
 62
     0
 10
213.17
 20
23.9503
 30
0.0
 11
213.17
 21
22.9499
 31
0.0
  0
LINE
  8
0
 62
     0
 10
213.17
 20
22.9499
 30
0.0
 11
227.169
 21
22.9499
 31
0.0
  0
LINE
  8
0
 62
     0
 10
227.169
 20
22.9499
 30
0.0
 11
227.169
 21
23.9503
 31
0.0
  0
LINE
  8
0
 62
     0
 10
227.169
 20
23.9503
 30
0.0
 11
227.969
 21
23.9503
 31
0.0
  0
LINE
  8
0
 62
     0
 10
227.969
 20
23.9503
 30
0.0
 11
227.969
 21
27.0495
 31
0.0
  0
LINE
  8
0
 62
     0
 10
227.969
 20
27.0495
 30
0.0
 11
227.169
 21
27.0495
 31
0.0
  0
LINE
  8
0
 62
     0
 10
227.169
 20
27.0495
 30
0.0
 11
227.169
 21
32.8497
 31
0.0
  0
LINE
  8
0
 62
     0
 10
227.169
 20
32.8497
 30
0.0
 11
227.969
 21
32.8497
 31
0.0
  0
LINE
  8
0
 62
     0
 10
227.969
 20
32.8497
 30
0.0
 11
227.969
 21
35.9502
 31
0.0
  0
LINE
  8
0
 62
     0
 10
227.969
 20
35.9502
 30
0.0
 11
227.169
 21
35.9502
 31
0.0
  0
LINE
  8
0
 62
     0
 10
227.169
 20
35.9502
 30
0.0
 11
227.169
 21
36.9492
 31
0.0
  0
LINE
  8
0
 62
     0
 10
227.169
 20
36.9492
 30
0.0
 11
213.17
 21
36.9492
 31
0.0
  0
LINE
  8
0
 62
     0
 10
194.12
 20
36.9492
 30
0.0
 11
194.12
 21
35.9502
 31
0.0
  0
LINE
  8
0
 62
     0
 10
194.12
 20
35.9502
 30
0.0
 11
193.319
 21
35.9502
 31
0.0
  0
LINE
  8
0
 62
     0
 10
193.319
 20
35.9502
 30
0.0
 11
193.319
 21
32.8497
 31
0.0
  0
LINE
  8
0
 62
     0
 10
193.319
 20
32.8497
 30
0.0
 11
194.12
 21
32.8497
 31
0.0
  0
LINE
  8
0
 62
     0
 10
194.12
 20
32.8497
 30
0.0
 11
194.12
 21
27.0495
 31
0.0
  0
LINE
  8
0
 62
     0
 10
194.12
 20
27.0495
 30
0.0
 11
193.319
 21
27.0495
 31
0.0
  0
LINE
  8
0
 62
     0
 10
193.319
 20
27.0495
 30
0.0
 11
193.319
 21
23.9503
 31
0.0
  0
LINE
  8
0
 62
     0
 10
193.319
 20
23.9503
 30
0.0
 11
194.12
 21
23.9503
 31
0.0
  0
LINE
  8
0
 62
     0
 10
194.12
 20
23.9503
 30
0.0
 11
194.12
 21
22.9499
 31
0.0
  0
LINE
  8
0
 62
     0
 10
194.12
 20
22.9499
 30
0.0
 11
208.119
 21
22.9499
 31
0.0
  0
LINE
  8
0
 62
     0
 10
208.119
 20
22.9499
 30
0.0
 11
208.119
 21
23.9503
 31
0.0
  0
LINE
  8
0
 62
     0
 10
208.119
 20
23.9503
 30
0.0
 11
208.919
 21
23.9503
 31
0.0
  0
LINE
  8
0
 62
     0
 10
208.919
 20
23.9503
 30
0.0
 11
208.919
 21
27.0495
 31
0.0
  0
LINE
  8
0
 62
     0
 10
208.919
 20
27.0495
 30
0.0
 11
208.119
 21
27.0495
 31
0.0
  0
LINE
  8
0
 62
     0
 10
208.119
 20
27.0495
 30
0.0
 11
208.119
 21
32.8497
 31
0.0
  0
LINE
  8
0
 62
     0
 10
208.119
 20
32.8497
 30
0.0
 11
208.919
 21
32.8497
 31
0.0
  0
LINE
  8
0
 62
     0
 10
208.919
 20
32.8497
 30
0.0
 11
208.919
 21
35.9502
 31
0.0
  0
LINE
  8
0
 62
     0
 10
208.919
 20
35.9502
 30
0.0
 11
208.119
 21
35.9502
 31
0.0
  0
LINE
  8
0
 62
     0
 10
208.119
 20
35.9502
 30
0.0
 11
208.119
 21
36.9492
 31
0.0
  0
LINE
  8
0
 62
     0
 10
208.119
 20
36.9492
 30
0.0
 11
194.12
 21
36.9492
 31
0.0
  0
LINE
  8
0
 62
     0
 10
175.07
 20
36.9492
 30
0.0
 11
175.07
 21
35.9502
 31
0.0
  0
LINE
  8
0
 62
     0
 10
175.07
 20
35.9502
 30
0.0
 11
174.269
 21
35.9502
 31
0.0
  0
LINE
  8
0
 62
     0
 10
174.269
 20
35.9502
 30
0.0
 11
174.269
 21
32.8497
 31
0.0
  0
LINE
  8
0
 62
     0
 10
174.269
 20
32.8497
 30
0.0
 11
175.07
 21
32.8497
 31
0.0
  0
LINE
  8
0
 62
     0
 10
175.07
 20
32.8497
 30
0.0
 11
175.07
 21
27.0495
 31
0.0
  0
LINE
  8
0
 62
     0
 10
175.07
 20
27.0495
 30
0.0
 11
174.269
 21
27.0495
 31
0.0
  0
LINE
  8
0
 62
     0
 10
174.269
 20
27.0495
 30
0.0
 11
174.269
 21
23.9503
 31
0.0
  0
LINE
  8
0
 62
     0
 10
174.269
 20
23.9503
 30
0.0
 11
175.07
 21
23.9503
 31
0.0
  0
LINE
  8
0
 62
     0
 10
175.07
 20
23.9503
 30
0.0
 11
175.07
 21
22.9499
 31
0.0
  0
LINE
  8
0
 62
     0
 10
175.07
 20
22.9499
 30
0.0
 11
189.069
 21
22.9499
 31
0.0
  0
LINE
  8
0
 62
     0
 10
189.069
 20
22.9499
 30
0.0
 11
189.069
 21
23.9503
 31
0.0
  0
LINE
  8
0
 62
     0
 10
189.069
 20
23.9503
 30
0.0
 11
189.869
 21
23.9503
 31
0.0
  0
LINE
  8
0
 62
     0
 10
189.869
 20
23.9503
 30
0.0
 11
189.869
 21
27.0495
 31
0.0
  0
LINE
  8
0
 62
     0
 10
189.869
 20
27.0495
 30
0.0
 11
189.069
 21
27.0495
 31
0.0
  0
LINE
  8
0
 62
     0
 10
189.069
 20
27.0495
 30
0.0
 11
189.069
 21
32.8497
 31
0.0
  0
LINE
  8
0
 62
     0
 10
189.069
 20
32.8497
 30
0.0
 11
189.869
 21
32.8497
 31
0.0
  0
LINE
  8
0
 62
     0
 10
189.869
 20
32.8497
 30
0.0
 11
189.869
 21
35.9502
 31
0.0
  0
LINE
  8
0
 62
     0
 10
189.869
 20
35.9502
 30
0.0
 11
189.069
 21
35.9502
 31
0.0
  0
LINE
  8
0
 62
     0
 10
189.069
 20
35.9502
 30
0.0
 11
189.069
 21
36.9492
 31
0.0
  0
LINE
  8
0
 62
     0
 10
189.069
 20
36.9492
 30
0.0
 11
175.07
 21
36.9492
 31
0.0
  0
LINE
  8
0
 62
     0
 10
156.02
 20
36.9492
 30
0.0
 11
156.02
 21
35.9502
 31
0.0
  0
LINE
  8
0
 62
     0
 10
156.02
 20
35.9502
 30
0.0
 11
155.219
 21
35.9502
 31
0.0
  0
LINE
  8
0
 62
     0
 10
155.219
 20
35.9502
 30
0.0
 11
155.219
 21
32.8497
 31
0.0
  0
LINE
  8
0
 62
     0
 10
155.219
 20
32.8497
 30
0.0
 11
156.02
 21
32.8497
 31
0.0
  0
LINE
  8
0
 62
     0
 10
156.02
 20
32.8497
 30
0.0
 11
156.02
 21
27.0495
 31
0.0
  0
LINE
  8
0
 62
     0
 10
156.02
 20
27.0495
 30
0.0
 11
155.219
 21
27.0495
 31
0.0
  0
LINE
  8
0
 62
     0
 10
155.219
 20
27.0495
 30
0.0
 11
155.219
 21
23.9503
 31
0.0
  0
LINE
  8
0
 62
     0
 10
155.219
 20
23.9503
 30
0.0
 11
156.02
 21
23.9503
 31
0.0
  0
LINE
  8
0
 62
     0
 10
156.02
 20
23.9503
 30
0.0
 11
156.02
 21
22.9499
 31
0.0
  0
LINE
  8
0
 62
     0
 10
156.02
 20
22.9499
 30
0.0
 11
170.019
 21
22.9499
 31
0.0
  0
LINE
  8
0
 62
     0
 10
170.019
 20
22.9499
 30
0.0
 11
170.019
 21
23.9503
 31
0.0
  0
LINE
  8
0
 62
     0
 10
170.019
 20
23.9503
 30
0.0
 11
170.819
 21
23.9503
 31
0.0
  0
LINE
  8
0
 62
     0
 10
170.819
 20
23.9503
 30
0.0
 11
170.819
 21
27.0495
 31
0.0
  0
LINE
  8
0
 62
     0
 10
170.819
 20
27.0495
 30
0.0
 11
170.019
 21
27.0495
 31
0.0
  0
LINE
  8
0
 62
     0
 10
170.019
 20
27.0495
 30
0.0
 11
170.019
 21
32.8497
 31
0.0
  0
LINE
  8
0
 62
     0
 10
170.019
 20
32.8497
 30
0.0
 11
170.819
 21
32.8497
 31
0.0
  0
LINE
  8
0
 62
     0
 10
170.819
 20
32.8497
 30
0.0
 11
170.819
 21
35.9502
 31
0.0
  0
LINE
  8
0
 62
     0
 10
170.819
 20
35.9502
 30
0.0
 11
170.019
 21
35.9502
 31
0.0
  0
LINE
  8
0
 62
     0
 10
170.019
 20
35.9502
 30
0.0
 11
170.019
 21
36.9492
 31
0.0
  0
LINE
  8
0
 62
     0
 10
170.019
 20
36.9492
 30
0.0
 11
156.02
 21
36.9492
 31
0.0
  0
LINE
  8
0
 62
     0
 10
136.97
 20
36.9492
 30
0.0
 11
136.97
 21
35.9502
 31
0.0
  0
LINE
  8
0
 62
     0
 10
136.97
 20
35.9502
 30
0.0
 11
136.169
 21
35.9502
 31
0.0
  0
LINE
  8
0
 62
     0
 10
136.169
 20
35.9502
 30
0.0
 11
136.169
 21
32.8497
 31
0.0
  0
LINE
  8
0
 62
     0
 10
136.169
 20
32.8497
 30
0.0
 11
136.97
 21
32.8497
 31
0.0
  0
LINE
  8
0
 62
     0
 10
136.97
 20
32.8497
 30
0.0
 11
136.97
 21
27.0495
 31
0.0
  0
LINE
  8
0
 62
     0
 10
136.97
 20
27.0495
 30
0.0
 11
136.169
 21
27.0495
 31
0.0
  0
LINE
  8
0
 62
     0
 10
136.169
 20
27.0495
 30
0.0
 11
136.169
 21
23.9503
 31
0.0
  0
LINE
  8
0
 62
     0
 10
136.169
 20
23.9503
 30
0.0
 11
136.97
 21
23.9503
 31
0.0
  0
LINE
  8
0
 62
     0
 10
136.97
 20
23.9503
 30
0.0
 11
136.97
 21
22.9499
 31
0.0
  0
LINE
  8
0
 62
     0
 10
136.97
 20
22.9499
 30
0.0
 11
150.969
 21
22.9499
 31
0.0
  0
LINE
  8
0
 62
     0
 10
150.969
 20
22.9499
 30
0.0
 11
150.969
 21
23.9503
 31
0.0
  0
LINE
  8
0
 62
     0
 10
150.969
 20
23.9503
 30
0.0
 11
151.769
 21
23.9503
 31
0.0
  0
LINE
  8
0
 62
     0
 10
151.769
 20
23.9503
 30
0.0
 11
151.769
 21
27.0495
 31
0.0
  0
LINE
  8
0
 62
     0
 10
151.769
 20
27.0495
 30
0.0
 11
150.969
 21
27.0495
 31
0.0
  0
LINE
  8
0
 62
     0
 10
150.969
 20
27.0495
 30
0.0
 11
150.969
 21
32.8497
 31
0.0
  0
LINE
  8
0
 62
     0
 10
150.969
 20
32.8497
 30
0.0
 11
151.769
 21
32.8497
 31
0.0
  0
LINE
  8
0
 62
     0
 10
151.769
 20
32.8497
 30
0.0
 11
151.769
 21
35.9502
 31
0.0
  0
LINE
  8
0
 62
     0
 10
151.769
 20
35.9502
 30
0.0
 11
150.969
 21
35.9502
 31
0.0
  0
LINE
  8
0
 62
     0
 10
150.969
 20
35.9502
 30
0.0
 11
150.969
 21
36.9492
 31
0.0
  0
LINE
  8
0
 62
     0
 10
150.969
 20
36.9492
 30
0.0
 11
136.97
 21
36.9492
 31
0.0
  0
LINE
  8
0
 62
     0
 10
117.92
 20
36.9492
 30
0.0
 11
117.92
 21
35.9502
 31
0.0
  0
LINE
  8
0
 62
     0
 10
117.92
 20
35.9502
 30
0.0
 11
117.119
 21
35.9502
 31
0.0
  0
LINE
  8
0
 62
     0
 10
117.119
 20
35.9502
 30
0.0
 11
117.119
 21
32.8497
 31
0.0
  0
LINE
  8
0
 62
     0
 10
117.119
 20
32.8497
 30
0.0
 11
117.92
 21
32.8497
 31
0.0
  0
LINE
  8
0
 62
     0
 10
117.92
 20
32.8497
 30
0.0
 11
117.92
 21
27.0495
 31
0.0
  0
LINE
  8
0
 62
     0
 10
117.92
 20
27.0495
 30
0.0
 11
117.119
 21
27.0495
 31
0.0
  0
LINE
  8
0
 62
     0
 10
117.119
 20
27.0495
 30
0.0
 11
117.119
 21
23.9503
 31
0.0
  0
LINE
  8
0
 62
     0
 10
117.119
 20
23.9503
 30
0.0
 11
117.92
 21
23.9503
 31
0.0
  0
LINE
  8
0
 62
     0
 10
117.92
 20
23.9503
 30
0.0
 11
117.92
 21
22.9499
 31
0.0
  0
LINE
  8
0
 62
     0
 10
117.92
 20
22.9499
 30
0.0
 11
131.919
 21
22.9499
 31
0.0
  0
LINE
  8
0
 62
     0
 10
131.919
 20
22.9499
 30
0.0
 11
131.919
 21
23.9503
 31
0.0
  0
LINE
  8
0
 62
     0
 10
131.919
 20
23.9503
 30
0.0
 11
132.719
 21
23.9503
 31
0.0
  0
LINE
  8
0
 62
     0
 10
132.719
 20
23.9503
 30
0.0
 11
132.719
 21
27.0495
 31
0.0
  0
LINE
  8
0
 62
     0
 10
132.719
 20
27.0495
 30
0.0
 11
131.919
 21
27.0495
 31
0.0
  0
LINE
  8
0
 62
     0
 10
131.919
 20
27.0495
 30
0.0
 11
131.919
 21
32.8497
 31
0.0
  0
LINE
  8
0
 62
     0
 10
131.919
 20
32.8497
 30
0.0
 11
132.719
 21
32.8497
 31
0.0
  0
LINE
  8
0
 62
     0
 10
132.719
 20
32.8497
 30
0.0
 11
132.719
 21
35.9502
 31
0.0
  0
LINE
  8
0
 62
     0
 10
132.719
 20
35.9502
 30
0.0
 11
131.919
 21
35.9502
 31
0.0
  0
LINE
  8
0
 62
     0
 10
131.919
 20
35.9502
 30
0.0
 11
131.919
 21
36.9492
 31
0.0
  0
LINE
  8
0
 62
     0
 10
131.919
 20
36.9492
 30
0.0
 11
117.92
 21
36.9492
 31
0.0
  0
LINE
  8
0
 62
     0
 10
98.8702
 20
36.9492
 30
0.0
 11
98.8702
 21
35.9502
 31
0.0
  0
LINE
  8
0
 62
     0
 10
98.8702
 20
35.9502
 30
0.0
 11
98.0694
 21
35.9502
 31
0.0
  0
LINE
  8
0
 62
     0
 10
98.0694
 20
35.9502
 30
0.0
 11
98.0694
 21
32.8497
 31
0.0
  0
LINE
  8
0
 62
     0
 10
98.0694
 20
32.8497
 30
0.0
 11
98.8702
 21
32.8497
 31
0.0
  0
LINE
  8
0
 62
     0
 10
98.8702
 20
32.8497
 30
0.0
 11
98.8702
 21
27.0495
 31
0.0
  0
LINE
  8
0
 62
     0
 10
98.8702
 20
27.0495
 30
0.0
 11
98.0694
 21
27.0495
 31
0.0
  0
LINE
  8
0
 62
     0
 10
98.0694
 20
27.0495
 30
0.0
 11
98.0694
 21
23.9503
 31
0.0
  0
LINE
  8
0
 62
     0
 10
98.0694
 20
23.9503
 30
0.0
 11
98.8702
 21
23.9503
 31
0.0
  0
LINE
  8
0
 62
     0
 10
98.8702
 20
23.9503
 30
0.0
 11
98.8702
 21
22.9499
 31
0.0
  0
LINE
  8
0
 62
     0
 10
98.8702
 20
22.9499
 30
0.0
 11
112.869
 21
22.9499
 31
0.0
  0
LINE
  8
0
 62
     0
 10
112.869
 20
22.9499
 30
0.0
 11
112.869
 21
23.9503
 31
0.0
  0
LINE
  8
0
 62
     0
 10
112.869
 20
23.9503
 30
0.0
 11
113.669
 21
23.9503
 31
0.0
  0
LINE
  8
0
 62
     0
 10
113.669
 20
23.9503
 30
0.0
 11
113.669
 21
27.0495
 31
0.0
  0
LINE
  8
0
 62
     0
 10
113.669
 20
27.0495
 30
0.0
 11
112.869
 21
27.0495
 31
0.0
  0
LINE
  8
0
 62
     0
 10
112.869
 20
27.0495
 30
0.0
 11
112.869
 21
32.8497
 31
0.0
  0
LINE
  8
0
 62
     0
 10
112.869
 20
32.8497
 30
0.0
 11
113.669
 21
32.8497
 31
0.0
  0
LINE
  8
0
 62
     0
 10
113.669
 20
32.8497
 30
0.0
 11
113.669
 21
35.9502
 31
0.0
  0
LINE
  8
0
 62
     0
 10
113.669
 20
35.9502
 30
0.0
 11
112.869
 21
35.9502
 31
0.0
  0
LINE
  8
0
 62
     0
 10
112.869
 20
35.9502
 30
0.0
 11
112.869
 21
36.9492
 31
0.0
  0
LINE
  8
0
 62
     0
 10
112.869
 20
36.9492
 30
0.0
 11
98.8702
 21
36.9492
 31
0.0
  0
LINE
  8
0
 62
     0
 10
75.0563
 20
36.9492
 30
0.0
 11
75.0563
 21
35.9502
 31
0.0
  0
LINE
  8
0
 62
     0
 10
75.0563
 20
35.9502
 30
0.0
 11
74.2569
 21
35.9502
 31
0.0
  0
LINE
  8
0
 62
     0
 10
74.2569
 20
35.9502
 30
0.0
 11
74.2569
 21
32.8497
 31
0.0
  0
LINE
  8
0
 62
     0
 10
74.2569
 20
32.8497
 30
0.0
 11
75.0563
 21
32.8497
 31
0.0
  0
LINE
  8
0
 62
     0
 10
75.0563
 20
32.8497
 30
0.0
 11
75.0563
 21
27.0495
 31
0.0
  0
LINE
  8
0
 62
     0
 10
75.0563
 20
27.0495
 30
0.0
 11
74.2569
 21
27.0495
 31
0.0
  0
LINE
  8
0
 62
     0
 10
74.2569
 20
27.0495
 30
0.0
 11
74.2569
 21
23.9503
 31
0.0
  0
LINE
  8
0
 62
     0
 10
74.2569
 20
23.9503
 30
0.0
 11
75.0563
 21
23.9503
 31
0.0
  0
LINE
  8
0
 62
     0
 10
75.0563
 20
23.9503
 30
0.0
 11
75.0563
 21
22.9499
 31
0.0
  0
LINE
  8
0
 62
     0
 10
75.0563
 20
22.9499
 30
0.0
 11
89.057
 21
22.9499
 31
0.0
  0
LINE
  8
0
 62
     0
 10
89.057
 20
22.9499
 30
0.0
 11
89.057
 21
23.9503
 31
0.0
  0
LINE
  8
0
 62
     0
 10
89.057
 20
23.9503
 30
0.0
 11
89.8564
 21
23.9503
 31
0.0
  0
LINE
  8
0
 62
     0
 10
89.8564
 20
23.9503
 30
0.0
 11
89.8564
 21
27.0495
 31
0.0
  0
LINE
  8
0
 62
     0
 10
89.8564
 20
27.0495
 30
0.0
 11
89.057
 21
27.0495
 31
0.0
  0
LINE
  8
0
 62
     0
 10
89.057
 20
27.0495
 30
0.0
 11
89.057
 21
32.8497
 31
0.0
  0
LINE
  8
0
 62
     0
 10
89.057
 20
32.8497
 30
0.0
 11
89.8564
 21
32.8497
 31
0.0
  0
LINE
  8
0
 62
     0
 10
89.8564
 20
32.8497
 30
0.0
 11
89.8564
 21
35.9502
 31
0.0
  0
LINE
  8
0
 62
     0
 10
89.8564
 20
35.9502
 30
0.0
 11
89.057
 21
35.9502
 31
0.0
  0
LINE
  8
0
 62
     0
 10
89.057
 20
35.9502
 30
0.0
 11
89.057
 21
36.9492
 31
0.0
  0
LINE
  8
0
 62
     0
 10
89.057
 20
36.9492
 30
0.0
 11
75.0563
 21
36.9492
 31
0.0
  0
LINE
  8
0
 62
     0
 10
41.7202
 20
36.9492
 30
0.0
 11
41.7202
 21
35.9502
 31
0.0
  0
LINE
  8
0
 62
     0
 10
41.7202
 20
35.9502
 30
0.0
 11
40.9194
 21
35.9502
 31
0.0
  0
LINE
  8
0
 62
     0
 10
40.9194
 20
35.9502
 30
0.0
 11
40.9194
 21
32.8497
 31
0.0
  0
LINE
  8
0
 62
     0
 10
40.9194
 20
32.8497
 30
0.0
 11
41.7202
 21
32.8497
 31
0.0
  0
LINE
  8
0
 62
     0
 10
41.7202
 20
32.8497
 30
0.0
 11
41.7202
 21
27.0495
 31
0.0
  0
LINE
  8
0
 62
     0
 10
41.7202
 20
27.0495
 30
0.0
 11
40.9194
 21
27.0495
 31
0.0
  0
LINE
  8
0
 62
     0
 10
40.9194
 20
27.0495
 30
0.0
 11
40.9194
 21
23.9503
 31
0.0
  0
LINE
  8
0
 62
     0
 10
40.9194
 20
23.9503
 30
0.0
 11
41.7202
 21
23.9503
 31
0.0
  0
LINE
  8
0
 62
     0
 10
41.7202
 20
23.9503
 30
0.0
 11
41.7202
 21
22.9499
 31
0.0
  0
LINE
  8
0
 62
     0
 10
41.7202
 20
22.9499
 30
0.0
 11
55.7195
 21
22.9499
 31
0.0
  0
LINE
  8
0
 62
     0
 10
55.7195
 20
22.9499
 30
0.0
 11
55.7195
 21
23.9503
 31
0.0
  0
LINE
  8
0
 62
     0
 10
55.7195
 20
23.9503
 30
0.0
 11
56.5189
 21
23.9503
 31
0.0
  0
LINE
  8
0
 62
     0
 10
56.5189
 20
23.9503
 30
0.0
 11
56.5189
 21
27.0495
 31
0.0
  0
LINE
  8
0
 62
     0
 10
56.5189
 20
27.0495
 30
0.0
 11
55.7195
 21
27.0495
 31
0.0
  0
LINE
  8
0
 62
     0
 10
55.7195
 20
27.0495
 30
0.0
 11
55.7195
 21
32.8497
 31
0.0
  0
LINE
  8
0
 62
     0
 10
55.7195
 20
32.8497
 30
0.0
 11
56.5189
 21
32.8497
 31
0.0
  0
LINE
  8
0
 62
     0
 10
56.5189
 20
32.8497
 30
0.0
 11
56.5189
 21
35.9502
 31
0.0
  0
LINE
  8
0
 62
     0
 10
56.5189
 20
35.9502
 30
0.0
 11
55.7195
 21
35.9502
 31
0.0
  0
LINE
  8
0
 62
     0
 10
55.7195
 20
35.9502
 30
0.0
 11
55.7195
 21
36.9492
 31
0.0
  0
LINE
  8
0
 62
     0
 10
55.7195
 20
36.9492
 30
0.0
 11
41.7202
 21
36.9492
 31
0.0
  0
LINE
  8
0
 62
     0
 10
22.6701
 20
36.9492
 30
0.0
 11
22.6701
 21
35.9502
 31
0.0
  0
LINE
  8
0
 62
     0
 10
22.6701
 20
35.9502
 30
0.0
 11
21.8695
 21
35.9502
 31
0.0
  0
LINE
  8
0
 62
     0
 10
21.8695
 20
35.9502
 30
0.0
 11
21.8695
 21
32.8497
 31
0.0
  0
LINE
  8
0
 62
     0
 10
21.8695
 20
32.8497
 30
0.0
 11
22.6701
 21
32.8497
 31
0.0
  0
LINE
  8
0
 62
     0
 10
22.6701
 20
32.8497
 30
0.0
 11
22.6701
 21
27.0495
 31
0.0
  0
LINE
  8
0
 62
     0
 10
22.6701
 20
27.0495
 30
0.0
 11
21.8695
 21
27.0495
 31
0.0
  0
LINE
  8
0
 62
     0
 10
21.8695
 20
27.0495
 30
0.0
 11
21.8695
 21
23.9503
 31
0.0
  0
LINE
  8
0
 62
     0
 10
21.8695
 20
23.9503
 30
0.0
 11
22.6701
 21
23.9503
 31
0.0
  0
LINE
  8
0
 62
     0
 10
22.6701
 20
23.9503
 30
0.0
 11
22.6701
 21
22.9499
 31
0.0
  0
LINE
  8
0
 62
     0
 10
22.6701
 20
22.9499
 30
0.0
 11
36.6695
 21
22.9499
 31
0.0
  0
LINE
  8
0
 62
     0
 10
36.6695
 20
22.9499
 30
0.0
 11
36.6695
 21
23.9503
 31
0.0
  0
LINE
  8
0
 62
     0
 10
36.6695
 20
23.9503
 30
0.0
 11
37.4689
 21
23.9503
 31
0.0
  0
LINE
  8
0
 62
     0
 10
37.4689
 20
23.9503
 30
0.0
 11
37.4689
 21
27.0495
 31
0.0
  0
LINE
  8
0
 62
     0
 10
37.4689
 20
27.0495
 30
0.0
 11
36.6695
 21
27.0495
 31
0.0
  0
LINE
  8
0
 62
     0
 10
36.6695
 20
27.0495
 30
0.0
 11
36.6695
 21
32.8497
 31
0.0
  0
LINE
  8
0
 62
     0
 10
36.6695
 20
32.8497
 30
0.0
 11
37.4689
 21
32.8497
 31
0.0
  0
LINE
  8
0
 62
     0
 10
37.4689
 20
32.8497
 30
0.0
 11
37.4689
 21
35.9502
 31
0.0
  0
LINE
  8
0
 62
     0
 10
37.4689
 20
35.9502
 30
0.0
 11
36.6695
 21
35.9502
 31
0.0
  0
LINE
  8
0
 62
     0
 10
36.6695
 20
35.9502
 30
0.0
 11
36.6695
 21
36.9492
 31
0.0
  0
LINE
  8
0
 62
     0
 10
36.6695
 20
36.9492
 30
0.0
 11
22.6701
 21
36.9492
 31
0.0
  0
LINE
  8
0
 62
     0
 10
3.6201
 20
36.9492
 30
0.0
 11
3.6201
 21
35.9502
 31
0.0
  0
LINE
  8
0
 62
     0
 10
3.6201
 20
35.9502
 30
0.0
 11
2.81947
 21
35.9502
 31
0.0
  0
LINE
  8
0
 62
     0
 10
2.81947
 20
35.9502
 30
0.0
 11
2.81947
 21
32.8497
 31
0.0
  0
LINE
  8
0
 62
     0
 10
2.81947
 20
32.8497
 30
0.0
 11
3.6201
 21
32.8497
 31
0.0
  0
LINE
  8
0
 62
     0
 10
3.6201
 20
32.8497
 30
0.0
 11
3.6201
 21
27.0495
 31
0.0
  0
LINE
  8
0
 62
     0
 10
3.6201
 20
27.0495
 30
0.0
 11
2.81947
 21
27.0495
 31
0.0
  0
LINE
  8
0
 62
     0
 10
2.81947
 20
27.0495
 30
0.0
 11
2.81947
 21
23.9503
 31
0.0
  0
LINE
  8
0
 62
     0
 10
2.81947
 20
23.9503
 30
0.0
 11
3.6201
 21
23.9503
 31
0.0
  0
LINE
  8
0
 62
     0
 10
3.6201
 20
23.9503
 30
0.0
 11
3.6201
 21
22.9499
 31
0.0
  0
LINE
  8
0
 62
     0
 10
3.6201
 20
22.9499
 30
0.0
 11
17.6196
 21
22.9499
 31
0.0
  0
LINE
  8
0
 62
     0
 10
17.6196
 20
22.9499
 30
0.0
 11
17.6196
 21
23.9503
 31
0.0
  0
LINE
  8
0
 62
     0
 10
17.6196
 20
23.9503
 30
0.0
 11
18.4188
 21
23.9503
 31
0.0
  0
LINE
  8
0
 62
     0
 10
18.4188
 20
23.9503
 30
0.0
 11
18.4188
 21
27.0495
 31
0.0
  0
LINE
  8
0
 62
     0
 10
18.4188
 20
27.0495
 30
0.0
 11
17.6196
 21
27.0495
 31
0.0
  0
LINE
  8
0
 62
     0
 10
17.6196
 20
27.0495
 30
0.0
 11
17.6196
 21
32.8497
 31
0.0
  0
LINE
  8
0
 62
     0
 10
17.6196
 20
32.8497
 30
0.0
 11
18.4188
 21
32.8497
 31
0.0
  0
LINE
  8
0
 62
     0
 10
18.4188
 20
32.8497
 30
0.0
 11
18.4188
 21
35.9502
 31
0.0
  0
LINE
  8
0
 62
     0
 10
18.4188
 20
35.9502
 30
0.0
 11
17.6196
 21
35.9502
 31
0.0
  0
LINE
  8
0
 62
     0
 10
17.6196
 20
35.9502
 30
0.0
 11
17.6196
 21
36.9492
 31
0.0
  0
LINE
  8
0
 62
     0
 10
17.6196
 20
36.9492
 30
0.0
 11
3.6201
 21
36.9492
 31
0.0
  0
LINE
  8
0
 62
     0
 10
260.795
 20
55.9992
 30
0.0
 11
260.795
 21
55.0002
 31
0.0
  0
LINE
  8
0
 62
     0
 10
260.795
 20
55.0002
 30
0.0
 11
259.994
 21
55.0002
 31
0.0
  0
LINE
  8
0
 62
     0
 10
259.994
 20
55.0002
 30
0.0
 11
259.994
 21
51.8996
 31
0.0
  0
LINE
  8
0
 62
     0
 10
259.994
 20
51.8996
 30
0.0
 11
260.795
 21
51.8996
 31
0.0
  0
LINE
  8
0
 62
     0
 10
260.795
 20
51.8996
 30
0.0
 11
260.795
 21
46.0996
 31
0.0
  0
LINE
  8
0
 62
     0
 10
260.795
 20
46.0996
 30
0.0
 11
259.994
 21
46.0996
 31
0.0
  0
LINE
  8
0
 62
     0
 10
259.994
 20
46.0996
 30
0.0
 11
259.994
 21
43.0004
 31
0.0
  0
LINE
  8
0
 62
     0
 10
259.994
 20
43.0004
 30
0.0
 11
260.795
 21
43.0004
 31
0.0
  0
LINE
  8
0
 62
     0
 10
260.795
 20
43.0004
 30
0.0
 11
260.795
 21
42
 31
0.0
  0
LINE
  8
0
 62
     0
 10
260.795
 20
42
 30
0.0
 11
274.794
 21
42
 31
0.0
  0
LINE
  8
0
 62
     0
 10
274.794
 20
42
 30
0.0
 11
274.794
 21
43.0004
 31
0.0
  0
LINE
  8
0
 62
     0
 10
274.794
 20
43.0004
 30
0.0
 11
275.594
 21
43.0004
 31
0.0
  0
LINE
  8
0
 62
     0
 10
275.594
 20
43.0004
 30
0.0
 11
275.594
 21
46.0996
 31
0.0
  0
LINE
  8
0
 62
     0
 10
275.594
 20
46.0996
 30
0.0
 11
274.794
 21
46.0996
 31
0.0
  0
LINE
  8
0
 62
     0
 10
274.794
 20
46.0996
 30
0.0
 11
274.794
 21
51.8996
 31
0.0
  0
LINE
  8
0
 62
     0
 10
274.794
 20
51.8996
 30
0.0
 11
275.594
 21
51.8996
 31
0.0
  0
LINE
  8
0
 62
     0
 10
275.594
 20
51.8996
 30
0.0
 11
275.594
 21
55.0002
 31
0.0
  0
LINE
  8
0
 62
     0
 10
275.594
 20
55.0002
 30
0.0
 11
274.794
 21
55.0002
 31
0.0
  0
LINE
  8
0
 62
     0
 10
274.794
 20
55.0002
 30
0.0
 11
274.794
 21
55.9992
 31
0.0
  0
LINE
  8
0
 62
     0
 10
274.794
 20
55.9992
 30
0.0
 11
260.795
 21
55.9992
 31
0.0
  0
LINE
  8
0
 62
     0
 10
241.745
 20
55.9992
 30
0.0
 11
241.745
 21
55.0002
 31
0.0
  0
LINE
  8
0
 62
     0
 10
241.745
 20
55.0002
 30
0.0
 11
240.944
 21
55.0002
 31
0.0
  0
LINE
  8
0
 62
     0
 10
240.944
 20
55.0002
 30
0.0
 11
240.944
 21
51.8996
 31
0.0
  0
LINE
  8
0
 62
     0
 10
240.944
 20
51.8996
 30
0.0
 11
241.745
 21
51.8996
 31
0.0
  0
LINE
  8
0
 62
     0
 10
241.745
 20
51.8996
 30
0.0
 11
241.745
 21
46.0996
 31
0.0
  0
LINE
  8
0
 62
     0
 10
241.745
 20
46.0996
 30
0.0
 11
240.944
 21
46.0996
 31
0.0
  0
LINE
  8
0
 62
     0
 10
240.944
 20
46.0996
 30
0.0
 11
240.944
 21
43.0004
 31
0.0
  0
LINE
  8
0
 62
     0
 10
240.944
 20
43.0004
 30
0.0
 11
241.745
 21
43.0004
 31
0.0
  0
LINE
  8
0
 62
     0
 10
241.745
 20
43.0004
 30
0.0
 11
241.745
 21
42
 31
0.0
  0
LINE
  8
0
 62
     0
 10
241.745
 20
42
 30
0.0
 11
255.743
 21
42
 31
0.0
  0
LINE
  8
0
 62
     0
 10
255.743
 20
42
 30
0.0
 11
255.743
 21
43.0004
 31
0.0
  0
LINE
  8
0
 62
     0
 10
255.743
 20
43.0004
 30
0.0
 11
256.544
 21
43.0004
 31
0.0
  0
LINE
  8
0
 62
     0
 10
256.544
 20
43.0004
 30
0.0
 11
256.544
 21
46.0996
 31
0.0
  0
LINE
  8
0
 62
     0
 10
256.544
 20
46.0996
 30
0.0
 11
255.743
 21
46.0996
 31
0.0
  0
LINE
  8
0
 62
     0
 10
255.743
 20
46.0996
 30
0.0
 11
255.743
 21
51.8996
 31
0.0
  0
LINE
  8
0
 62
     0
 10
255.743
 20
51.8996
 30
0.0
 11
256.544
 21
51.8996
 31
0.0
  0
LINE
  8
0
 62
     0
 10
256.544
 20
51.8996
 30
0.0
 11
256.544
 21
55.0002
 31
0.0
  0
LINE
  8
0
 62
     0
 10
256.544
 20
55.0002
 30
0.0
 11
255.743
 21
55.0002
 31
0.0
  0
LINE
  8
0
 62
     0
 10
255.743
 20
55.0002
 30
0.0
 11
255.743
 21
55.9992
 31
0.0
  0
LINE
  8
0
 62
     0
 10
255.743
 20
55.9992
 30
0.0
 11
241.745
 21
55.9992
 31
0.0
  0
LINE
  8
0
 62
     0
 10
222.695
 20
55.9992
 30
0.0
 11
222.695
 21
55.0002
 31
0.0
  0
LINE
  8
0
 62
     0
 10
222.695
 20
55.0002
 30
0.0
 11
221.894
 21
55.0002
 31
0.0
  0
LINE
  8
0
 62
     0
 10
221.894
 20
55.0002
 30
0.0
 11
221.894
 21
51.8996
 31
0.0
  0
LINE
  8
0
 62
     0
 10
221.894
 20
51.8996
 30
0.0
 11
222.695
 21
51.8996
 31
0.0
  0
LINE
  8
0
 62
     0
 10
222.695
 20
51.8996
 30
0.0
 11
222.695
 21
46.0996
 31
0.0
  0
LINE
  8
0
 62
     0
 10
222.695
 20
46.0996
 30
0.0
 11
221.894
 21
46.0996
 31
0.0
  0
LINE
  8
0
 62
     0
 10
221.894
 20
46.0996
 30
0.0
 11
221.894
 21
43.0004
 31
0.0
  0
LINE
  8
0
 62
     0
 10
221.894
 20
43.0004
 30
0.0
 11
222.695
 21
43.0004
 31
0.0
  0
LINE
  8
0
 62
     0
 10
222.695
 20
43.0004
 30
0.0
 11
222.695
 21
42
 31
0.0
  0
LINE
  8
0
 62
     0
 10
222.695
 20
42
 30
0.0
 11
236.694
 21
42
 31
0.0
  0
LINE
  8
0
 62
     0
 10
236.694
 20
42
 30
0.0
 11
236.694
 21
43.0004
 31
0.0
  0
LINE
  8
0
 62
     0
 10
236.694
 20
43.0004
 30
0.0
 11
237.494
 21
43.0004
 31
0.0
  0
LINE
  8
0
 62
     0
 10
237.494
 20
43.0004
 30
0.0
 11
237.494
 21
46.0996
 31
0.0
  0
LINE
  8
0
 62
     0
 10
237.494
 20
46.0996
 30
0.0
 11
236.694
 21
46.0996
 31
0.0
  0
LINE
  8
0
 62
     0
 10
236.694
 20
46.0996
 30
0.0
 11
236.694
 21
51.8996
 31
0.0
  0
LINE
  8
0
 62
     0
 10
236.694
 20
51.8996
 30
0.0
 11
237.494
 21
51.8996
 31
0.0
  0
LINE
  8
0
 62
     0
 10
237.494
 20
51.8996
 30
0.0
 11
237.494
 21
55.0002
 31
0.0
  0
LINE
  8
0
 62
     0
 10
237.494
 20
55.0002
 30
0.0
 11
236.694
 21
55.0002
 31
0.0
  0
LINE
  8
0
 62
     0
 10
236.694
 20
55.0002
 30
0.0
 11
236.694
 21
55.9992
 31
0.0
  0
LINE
  8
0
 62
     0
 10
236.694
 20
55.9992
 30
0.0
 11
222.695
 21
55.9992
 31
0.0
  0
LINE
  8
0
 62
     0
 10
203.645
 20
55.9992
 30
0.0
 11
203.645
 21
55.0002
 31
0.0
  0
LINE
  8
0
 62
     0
 10
203.645
 20
55.0002
 30
0.0
 11
202.844
 21
55.0002
 31
0.0
  0
LINE
  8
0
 62
     0
 10
202.844
 20
55.0002
 30
0.0
 11
202.844
 21
51.8996
 31
0.0
  0
LINE
  8
0
 62
     0
 10
202.844
 20
51.8996
 30
0.0
 11
203.645
 21
51.8996
 31
0.0
  0
LINE
  8
0
 62
     0
 10
203.645
 20
51.8996
 30
0.0
 11
203.645
 21
46.0996
 31
0.0
  0
LINE
  8
0
 62
     0
 10
203.645
 20
46.0996
 30
0.0
 11
202.844
 21
46.0996
 31
0.0
  0
LINE
  8
0
 62
     0
 10
202.844
 20
46.0996
 30
0.0
 11
202.844
 21
43.0004
 31
0.0
  0
LINE
  8
0
 62
     0
 10
202.844
 20
43.0004
 30
0.0
 11
203.645
 21
43.0004
 31
0.0
  0
LINE
  8
0
 62
     0
 10
203.645
 20
43.0004
 30
0.0
 11
203.645
 21
42
 31
0.0
  0
LINE
  8
0
 62
     0
 10
203.645
 20
42
 30
0.0
 11
217.644
 21
42
 31
0.0
  0
LINE
  8
0
 62
     0
 10
217.644
 20
42
 30
0.0
 11
217.644
 21
43.0004
 31
0.0
  0
LINE
  8
0
 62
     0
 10
217.644
 20
43.0004
 30
0.0
 11
218.444
 21
43.0004
 31
0.0
  0
LINE
  8
0
 62
     0
 10
218.444
 20
43.0004
 30
0.0
 11
218.444
 21
46.0996
 31
0.0
  0
LINE
  8
0
 62
     0
 10
218.444
 20
46.0996
 30
0.0
 11
217.644
 21
46.0996
 31
0.0
  0
LINE
  8
0
 62
     0
 10
217.644
 20
46.0996
 30
0.0
 11
217.644
 21
51.8996
 31
0.0
  0
LINE
  8
0
 62
     0
 10
217.644
 20
51.8996
 30
0.0
 11
218.444
 21
51.8996
 31
0.0
  0
LINE
  8
0
 62
     0
 10
218.444
 20
51.8996
 30
0.0
 11
218.444
 21
55.0002
 31
0.0
  0
LINE
  8
0
 62
     0
 10
218.444
 20
55.0002
 30
0.0
 11
217.644
 21
55.0002
 31
0.0
  0
LINE
  8
0
 62
     0
 10
217.644
 20
55.0002
 30
0.0
 11
217.644
 21
55.9992
 31
0.0
  0
LINE
  8
0
 62
     0
 10
217.644
 20
55.9992
 30
0.0
 11
203.645
 21
55.9992
 31
0.0
  0
LINE
  8
0
 62
     0
 10
184.595
 20
55.9992
 30
0.0
 11
184.595
 21
55.0002
 31
0.0
  0
LINE
  8
0
 62
     0
 10
184.595
 20
55.0002
 30
0.0
 11
183.794
 21
55.0002
 31
0.0
  0
LINE
  8
0
 62
     0
 10
183.794
 20
55.0002
 30
0.0
 11
183.794
 21
51.8996
 31
0.0
  0
LINE
  8
0
 62
     0
 10
183.794
 20
51.8996
 30
0.0
 11
184.595
 21
51.8996
 31
0.0
  0
LINE
  8
0
 62
     0
 10
184.595
 20
51.8996
 30
0.0
 11
184.595
 21
46.0996
 31
0.0
  0
LINE
  8
0
 62
     0
 10
184.595
 20
46.0996
 30
0.0
 11
183.794
 21
46.0996
 31
0.0
  0
LINE
  8
0
 62
     0
 10
183.794
 20
46.0996
 30
0.0
 11
183.794
 21
43.0004
 31
0.0
  0
LINE
  8
0
 62
     0
 10
183.794
 20
43.0004
 30
0.0
 11
184.595
 21
43.0004
 31
0.0
  0
LINE
  8
0
 62
     0
 10
184.595
 20
43.0004
 30
0.0
 11
184.595
 21
42
 31
0.0
  0
LINE
  8
0
 62
     0
 10
184.595
 20
42
 30
0.0
 11
198.594
 21
42
 31
0.0
  0
LINE
  8
0
 62
     0
 10
198.594
 20
42
 30
0.0
 11
198.594
 21
43.0004
 31
0.0
  0
LINE
  8
0
 62
     0
 10
198.594
 20
43.0004
 30
0.0
 11
199.394
 21
43.0004
 31
0.0
  0
LINE
  8
0
 62
     0
 10
199.394
 20
43.0004
 30
0.0
 11
199.394
 21
46.0996
 31
0.0
  0
LINE
  8
0
 62
     0
 10
199.394
 20
46.0996
 30
0.0
 11
198.594
 21
46.0996
 31
0.0
  0
LINE
  8
0
 62
     0
 10
198.594
 20
46.0996
 30
0.0
 11
198.594
 21
51.8996
 31
0.0
  0
LINE
  8
0
 62
     0
 10
198.594
 20
51.8996
 30
0.0
 11
199.394
 21
51.8996
 31
0.0
  0
LINE
  8
0
 62
     0
 10
199.394
 20
51.8996
 30
0.0
 11
199.394
 21
55.0002
 31
0.0
  0
LINE
  8
0
 62
     0
 10
199.394
 20
55.0002
 30
0.0
 11
198.594
 21
55.0002
 31
0.0
  0
LINE
  8
0
 62
     0
 10
198.594
 20
55.0002
 30
0.0
 11
198.594
 21
55.9992
 31
0.0
  0
LINE
  8
0
 62
     0
 10
198.594
 20
55.9992
 30
0.0
 11
184.595
 21
55.9992
 31
0.0
  0
LINE
  8
0
 62
     0
 10
165.545
 20
55.9992
 30
0.0
 11
165.545
 21
55.0002
 31
0.0
  0
LINE
  8
0
 62
     0
 10
165.545
 20
55.0002
 30
0.0
 11
164.744
 21
55.0002
 31
0.0
  0
LINE
  8
0
 62
     0
 10
164.744
 20
55.0002
 30
0.0
 11
164.744
 21
51.8996
 31
0.0
  0
LINE
  8
0
 62
     0
 10
164.744
 20
51.8996
 30
0.0
 11
165.545
 21
51.8996
 31
0.0
  0
LINE
  8
0
 62
     0
 10
165.545
 20
51.8996
 30
0.0
 11
165.545
 21
46.0996
 31
0.0
  0
LINE
  8
0
 62
     0
 10
165.545
 20
46.0996
 30
0.0
 11
164.744
 21
46.0996
 31
0.0
  0
LINE
  8
0
 62
     0
 10
164.744
 20
46.0996
 30
0.0
 11
164.744
 21
43.0004
 31
0.0
  0
LINE
  8
0
 62
     0
 10
164.744
 20
43.0004
 30
0.0
 11
165.545
 21
43.0004
 31
0.0
  0
LINE
  8
0
 62
     0
 10
165.545
 20
43.0004
 30
0.0
 11
165.545
 21
42
 31
0.0
  0
LINE
  8
0
 62
     0
 10
165.545
 20
42
 30
0.0
 11
179.544
 21
42
 31
0.0
  0
LINE
  8
0
 62
     0
 10
179.544
 20
42
 30
0.0
 11
179.544
 21
43.0004
 31
0.0
  0
LINE
  8
0
 62
     0
 10
179.544
 20
43.0004
 30
0.0
 11
180.344
 21
43.0004
 31
0.0
  0
LINE
  8
0
 62
     0
 10
180.344
 20
43.0004
 30
0.0
 11
180.344
 21
46.0996
 31
0.0
  0
LINE
  8
0
 62
     0
 10
180.344
 20
46.0996
 30
0.0
 11
179.544
 21
46.0996
 31
0.0
  0
LINE
  8
0
 62
     0
 10
179.544
 20
46.0996
 30
0.0
 11
179.544
 21
51.8996
 31
0.0
  0
LINE
  8
0
 62
     0
 10
179.544
 20
51.8996
 30
0.0
 11
180.344
 21
51.8996
 31
0.0
  0
LINE
  8
0
 62
     0
 10
180.344
 20
51.8996
 30
0.0
 11
180.344
 21
55.0002
 31
0.0
  0
LINE
  8
0
 62
     0
 10
180.344
 20
55.0002
 30
0.0
 11
179.544
 21
55.0002
 31
0.0
  0
LINE
  8
0
 62
     0
 10
179.544
 20
55.0002
 30
0.0
 11
179.544
 21
55.9992
 31
0.0
  0
LINE
  8
0
 62
     0
 10
179.544
 20
55.9992
 30
0.0
 11
165.545
 21
55.9992
 31
0.0
  0
LINE
  8
0
 62
     0
 10
146.495
 20
55.9992
 30
0.0
 11
146.495
 21
55.0002
 31
0.0
  0
LINE
  8
0
 62
     0
 10
146.495
 20
55.0002
 30
0.0
 11
145.694
 21
55.0002
 31
0.0
  0
LINE
  8
0
 62
     0
 10
145.694
 20
55.0002
 30
0.0
 11
145.694
 21
51.8996
 31
0.0
  0
LINE
  8
0
 62
     0
 10
145.694
 20
51.8996
 30
0.0
 11
146.495
 21
51.8996
 31
0.0
  0
LINE
  8
0
 62
     0
 10
146.495
 20
51.8996
 30
0.0
 11
146.495
 21
46.0996
 31
0.0
  0
LINE
  8
0
 62
     0
 10
146.495
 20
46.0996
 30
0.0
 11
145.694
 21
46.0996
 31
0.0
  0
LINE
  8
0
 62
     0
 10
145.694
 20
46.0996
 30
0.0
 11
145.694
 21
43.0004
 31
0.0
  0
LINE
  8
0
 62
     0
 10
145.694
 20
43.0004
 30
0.0
 11
146.495
 21
43.0004
 31
0.0
  0
LINE
  8
0
 62
     0
 10
146.495
 20
43.0004
 30
0.0
 11
146.495
 21
42
 31
0.0
  0
LINE
  8
0
 62
     0
 10
146.495
 20
42
 30
0.0
 11
160.494
 21
42
 31
0.0
  0
LINE
  8
0
 62
     0
 10
160.494
 20
42
 30
0.0
 11
160.494
 21
43.0004
 31
0.0
  0
LINE
  8
0
 62
     0
 10
160.494
 20
43.0004
 30
0.0
 11
161.294
 21
43.0004
 31
0.0
  0
LINE
  8
0
 62
     0
 10
161.294
 20
43.0004
 30
0.0
 11
161.294
 21
46.0996
 31
0.0
  0
LINE
  8
0
 62
     0
 10
161.294
 20
46.0996
 30
0.0
 11
160.494
 21
46.0996
 31
0.0
  0
LINE
  8
0
 62
     0
 10
160.494
 20
46.0996
 30
0.0
 11
160.494
 21
51.8996
 31
0.0
  0
LINE
  8
0
 62
     0
 10
160.494
 20
51.8996
 30
0.0
 11
161.294
 21
51.8996
 31
0.0
  0
LINE
  8
0
 62
     0
 10
161.294
 20
51.8996
 30
0.0
 11
161.294
 21
55.0002
 31
0.0
  0
LINE
  8
0
 62
     0
 10
161.294
 20
55.0002
 30
0.0
 11
160.494
 21
55.0002
 31
0.0
  0
LINE
  8
0
 62
     0
 10
160.494
 20
55.0002
 30
0.0
 11
160.494
 21
55.9992
 31
0.0
  0
LINE
  8
0
 62
     0
 10
160.494
 20
55.9992
 30
0.0
 11
146.495
 21
55.9992
 31
0.0
  0
LINE
  8
0
 62
     0
 10
127.445
 20
55.9992
 30
0.0
 11
127.445
 21
55.0002
 31
0.0
  0
LINE
  8
0
 62
     0
 10
127.445
 20
55.0002
 30
0.0
 11
126.643
 21
55.0002
 31
0.0
  0
LINE
  8
0
 62
     0
 10
126.643
 20
55.0002
 30
0.0
 11
126.643
 21
51.8996
 31
0.0
  0
LINE
  8
0
 62
     0
 10
126.643
 20
51.8996
 30
0.0
 11
127.445
 21
51.8996
 31
0.0
  0
LINE
  8
0
 62
     0
 10
127.445
 20
51.8996
 30
0.0
 11
127.445
 21
46.0996
 31
0.0
  0
LINE
  8
0
 62
     0
 10
127.445
 20
46.0996
 30
0.0
 11
126.643
 21
46.0996
 31
0.0
  0
LINE
  8
0
 62
     0
 10
126.643
 20
46.0996
 30
0.0
 11
126.643
 21
43.0004
 31
0.0
  0
LINE
  8
0
 62
     0
 10
126.643
 20
43.0004
 30
0.0
 11
127.445
 21
43.0004
 31
0.0
  0
LINE
  8
0
 62
     0
 10
127.445
 20
43.0004
 30
0.0
 11
127.445
 21
42
 31
0.0
  0
LINE
  8
0
 62
     0
 10
127.445
 20
42
 30
0.0
 11
141.444
 21
42
 31
0.0
  0
LINE
  8
0
 62
     0
 10
141.444
 20
42
 30
0.0
 11
141.444
 21
43.0004
 31
0.0
  0
LINE
  8
0
 62
     0
 10
141.444
 20
43.0004
 30
0.0
 11
142.244
 21
43.0004
 31
0.0
  0
LINE
  8
0
 62
     0
 10
142.244
 20
43.0004
 30
0.0
 11
142.244
 21
46.0996
 31
0.0
  0
LINE
  8
0
 62
     0
 10
142.244
 20
46.0996
 30
0.0
 11
141.444
 21
46.0996
 31
0.0
  0
LINE
  8
0
 62
     0
 10
141.444
 20
46.0996
 30
0.0
 11
141.444
 21
51.8996
 31
0.0
  0
LINE
  8
0
 62
     0
 10
141.444
 20
51.8996
 30
0.0
 11
142.244
 21
51.8996
 31
0.0
  0
LINE
  8
0
 62
     0
 10
142.244
 20
51.8996
 30
0.0
 11
142.244
 21
55.0002
 31
0.0
  0
LINE
  8
0
 62
     0
 10
142.244
 20
55.0002
 30
0.0
 11
141.444
 21
55.0002
 31
0.0
  0
LINE
  8
0
 62
     0
 10
141.444
 20
55.0002
 30
0.0
 11
141.444
 21
55.9992
 31
0.0
  0
LINE
  8
0
 62
     0
 10
141.444
 20
55.9992
 30
0.0
 11
127.445
 21
55.9992
 31
0.0
  0
LINE
  8
0
 62
     0
 10
108.395
 20
55.9992
 30
0.0
 11
108.395
 21
55.0002
 31
0.0
  0
LINE
  8
0
 62
     0
 10
108.395
 20
55.0002
 30
0.0
 11
107.594
 21
55.0002
 31
0.0
  0
LINE
  8
0
 62
     0
 10
107.594
 20
55.0002
 30
0.0
 11
107.594
 21
51.8996
 31
0.0
  0
LINE
  8
0
 62
     0
 10
107.594
 20
51.8996
 30
0.0
 11
108.395
 21
51.8996
 31
0.0
  0
LINE
  8
0
 62
     0
 10
108.395
 20
51.8996
 30
0.0
 11
108.395
 21
46.0996
 31
0.0
  0
LINE
  8
0
 62
     0
 10
108.395
 20
46.0996
 30
0.0
 11
107.594
 21
46.0996
 31
0.0
  0
LINE
  8
0
 62
     0
 10
107.594
 20
46.0996
 30
0.0
 11
107.594
 21
43.0004
 31
0.0
  0
LINE
  8
0
 62
     0
 10
107.594
 20
43.0004
 30
0.0
 11
108.395
 21
43.0004
 31
0.0
  0
LINE
  8
0
 62
     0
 10
108.395
 20
43.0004
 30
0.0
 11
108.395
 21
42
 31
0.0
  0
LINE
  8
0
 62
     0
 10
108.395
 20
42
 30
0.0
 11
122.394
 21
42
 31
0.0
  0
LINE
  8
0
 62
     0
 10
122.394
 20
42
 30
0.0
 11
122.394
 21
43.0004
 31
0.0
  0
LINE
  8
0
 62
     0
 10
122.394
 20
43.0004
 30
0.0
 11
123.194
 21
43.0004
 31
0.0
  0
LINE
  8
0
 62
     0
 10
123.194
 20
43.0004
 30
0.0
 11
123.194
 21
46.0996
 31
0.0
  0
LINE
  8
0
 62
     0
 10
123.194
 20
46.0996
 30
0.0
 11
122.394
 21
46.0996
 31
0.0
  0
LINE
  8
0
 62
     0
 10
122.394
 20
46.0996
 30
0.0
 11
122.394
 21
51.8996
 31
0.0
  0
LINE
  8
0
 62
     0
 10
122.394
 20
51.8996
 30
0.0
 11
123.194
 21
51.8996
 31
0.0
  0
LINE
  8
0
 62
     0
 10
123.194
 20
51.8996
 30
0.0
 11
123.194
 21
55.0002
 31
0.0
  0
LINE
  8
0
 62
     0
 10
123.194
 20
55.0002
 30
0.0
 11
122.394
 21
55.0002
 31
0.0
  0
LINE
  8
0
 62
     0
 10
122.394
 20
55.0002
 30
0.0
 11
122.394
 21
55.9992
 31
0.0
  0
LINE
  8
0
 62
     0
 10
122.394
 20
55.9992
 30
0.0
 11
108.395
 21
55.9992
 31
0.0
  0
LINE
  8
0
 62
     0
 10
89.3452
 20
55.9992
 30
0.0
 11
89.3452
 21
55.0002
 31
0.0
  0
LINE
  8
0
 62
     0
 10
89.3452
 20
55.0002
 30
0.0
 11
88.5444
 21
55.0002
 31
0.0
  0
LINE
  8
0
 62
     0
 10
88.5444
 20
55.0002
 30
0.0
 11
88.5444
 21
51.8996
 31
0.0
  0
LINE
  8
0
 62
     0
 10
88.5444
 20
51.8996
 30
0.0
 11
89.3452
 21
51.8996
 31
0.0
  0
LINE
  8
0
 62
     0
 10
89.3452
 20
51.8996
 30
0.0
 11
89.3452
 21
46.0996
 31
0.0
  0
LINE
  8
0
 62
     0
 10
89.3452
 20
46.0996
 30
0.0
 11
88.5444
 21
46.0996
 31
0.0
  0
LINE
  8
0
 62
     0
 10
88.5444
 20
46.0996
 30
0.0
 11
88.5444
 21
43.0004
 31
0.0
  0
LINE
  8
0
 62
     0
 10
88.5444
 20
43.0004
 30
0.0
 11
89.3452
 21
43.0004
 31
0.0
  0
LINE
  8
0
 62
     0
 10
89.3452
 20
43.0004
 30
0.0
 11
89.3452
 21
42
 31
0.0
  0
LINE
  8
0
 62
     0
 10
89.3452
 20
42
 30
0.0
 11
103.344
 21
42
 31
0.0
  0
LINE
  8
0
 62
     0
 10
103.344
 20
42
 30
0.0
 11
103.344
 21
43.0004
 31
0.0
  0
LINE
  8
0
 62
     0
 10
103.344
 20
43.0004
 30
0.0
 11
104.144
 21
43.0004
 31
0.0
  0
LINE
  8
0
 62
     0
 10
104.144
 20
43.0004
 30
0.0
 11
104.144
 21
46.0996
 31
0.0
  0
LINE
  8
0
 62
     0
 10
104.144
 20
46.0996
 30
0.0
 11
103.344
 21
46.0996
 31
0.0
  0
LINE
  8
0
 62
     0
 10
103.344
 20
46.0996
 30
0.0
 11
103.344
 21
51.8996
 31
0.0
  0
LINE
  8
0
 62
     0
 10
103.344
 20
51.8996
 30
0.0
 11
104.144
 21
51.8996
 31
0.0
  0
LINE
  8
0
 62
     0
 10
104.144
 20
51.8996
 30
0.0
 11
104.144
 21
55.0002
 31
0.0
  0
LINE
  8
0
 62
     0
 10
104.144
 20
55.0002
 30
0.0
 11
103.344
 21
55.0002
 31
0.0
  0
LINE
  8
0
 62
     0
 10
103.344
 20
55.0002
 30
0.0
 11
103.344
 21
55.9992
 31
0.0
  0
LINE
  8
0
 62
     0
 10
103.344
 20
55.9992
 30
0.0
 11
89.3452
 21
55.9992
 31
0.0
  0
LINE
  8
0
 62
     0
 10
70.2952
 20
55.9992
 30
0.0
 11
70.2952
 21
55.0002
 31
0.0
  0
LINE
  8
0
 62
     0
 10
70.2952
 20
55.0002
 30
0.0
 11
69.4944
 21
55.0002
 31
0.0
  0
LINE
  8
0
 62
     0
 10
69.4944
 20
55.0002
 30
0.0
 11
69.4944
 21
51.8996
 31
0.0
  0
LINE
  8
0
 62
     0
 10
69.4944
 20
51.8996
 30
0.0
 11
70.2952
 21
51.8996
 31
0.0
  0
LINE
  8
0
 62
     0
 10
70.2952
 20
51.8996
 30
0.0
 11
70.2952
 21
46.0996
 31
0.0
  0
LINE
  8
0
 62
     0
 10
70.2952
 20
46.0996
 30
0.0
 11
69.4944
 21
46.0996
 31
0.0
  0
LINE
  8
0
 62
     0
 10
69.4944
 20
46.0996
 30
0.0
 11
69.4944
 21
43.0004
 31
0.0
  0
LINE
  8
0
 62
     0
 10
69.4944
 20
43.0004
 30
0.0
 11
70.2952
 21
43.0004
 31
0.0
  0
LINE
  8
0
 62
     0
 10
70.2952
 20
43.0004
 30
0.0
 11
70.2952
 21
42
 31
0.0
  0
LINE
  8
0
 62
     0
 10
70.2952
 20
42
 30
0.0
 11
84.2945
 21
42
 31
0.0
  0
LINE
  8
0
 62
     0
 10
84.2945
 20
42
 30
0.0
 11
84.2945
 21
43.0004
 31
0.0
  0
LINE
  8
0
 62
     0
 10
84.2945
 20
43.0004
 30
0.0
 11
85.0939
 21
43.0004
 31
0.0
  0
LINE
  8
0
 62
     0
 10
85.0939
 20
43.0004
 30
0.0
 11
85.0939
 21
46.0996
 31
0.0
  0
LINE
  8
0
 62
     0
 10
85.0939
 20
46.0996
 30
0.0
 11
84.2945
 21
46.0996
 31
0.0
  0
LINE
  8
0
 62
     0
 10
84.2945
 20
46.0996
 30
0.0
 11
84.2945
 21
51.8996
 31
0.0
  0
LINE
  8
0
 62
     0
 10
84.2945
 20
51.8996
 30
0.0
 11
85.0939
 21
51.8996
 31
0.0
  0
LINE
  8
0
 62
     0
 10
85.0939
 20
51.8996
 30
0.0
 11
85.0939
 21
55.0002
 31
0.0
  0
LINE
  8
0
 62
     0
 10
85.0939
 20
55.0002
 30
0.0
 11
84.2945
 21
55.0002
 31
0.0
  0
LINE
  8
0
 62
     0
 10
84.2945
 20
55.0002
 30
0.0
 11
84.2945
 21
55.9992
 31
0.0
  0
LINE
  8
0
 62
     0
 10
84.2945
 20
55.9992
 30
0.0
 11
70.2952
 21
55.9992
 31
0.0
  0
LINE
  8
0
 62
     0
 10
41.7202
 20
55.9992
 30
0.0
 11
41.7202
 21
55.0002
 31
0.0
  0
LINE
  8
0
 62
     0
 10
41.7202
 20
55.0002
 30
0.0
 11
40.9194
 21
55.0002
 31
0.0
  0
LINE
  8
0
 62
     0
 10
40.9194
 20
55.0002
 30
0.0
 11
40.9194
 21
51.8996
 31
0.0
  0
LINE
  8
0
 62
     0
 10
40.9194
 20
51.8996
 30
0.0
 11
41.7202
 21
51.8996
 31
0.0
  0
LINE
  8
0
 62
     0
 10
41.7202
 20
51.8996
 30
0.0
 11
41.7202
 21
46.0996
 31
0.0
  0
LINE
  8
0
 62
     0
 10
41.7202
 20
46.0996
 30
0.0
 11
40.9194
 21
46.0996
 31
0.0
  0
LINE
  8
0
 62
     0
 10
40.9194
 20
46.0996
 30
0.0
 11
40.9194
 21
43.0004
 31
0.0
  0
LINE
  8
0
 62
     0
 10
40.9194
 20
43.0004
 30
0.0
 11
41.7202
 21
43.0004
 31
0.0
  0
LINE
  8
0
 62
     0
 10
41.7202
 20
43.0004
 30
0.0
 11
41.7202
 21
42
 31
0.0
  0
LINE
  8
0
 62
     0
 10
41.7202
 20
42
 30
0.0
 11
55.7195
 21
42
 31
0.0
  0
LINE
  8
0
 62
     0
 10
55.7195
 20
42
 30
0.0
 11
55.7195
 21
43.0004
 31
0.0
  0
LINE
  8
0
 62
     0
 10
55.7195
 20
43.0004
 30
0.0
 11
56.5189
 21
43.0004
 31
0.0
  0
LINE
  8
0
 62
     0
 10
56.5189
 20
43.0004
 30
0.0
 11
56.5189
 21
46.0996
 31
0.0
  0
LINE
  8
0
 62
     0
 10
56.5189
 20
46.0996
 30
0.0
 11
55.7195
 21
46.0996
 31
0.0
  0
LINE
  8
0
 62
     0
 10
55.7195
 20
46.0996
 30
0.0
 11
55.7195
 21
51.8996
 31
0.0
  0
LINE
  8
0
 62
     0
 10
55.7195
 20
51.8996
 30
0.0
 11
56.5189
 21
51.8996
 31
0.0
  0
LINE
  8
0
 62
     0
 10
56.5189
 20
51.8996
 30
0.0
 11
56.5189
 21
55.0002
 31
0.0
  0
LINE
  8
0
 62
     0
 10
56.5189
 20
55.0002
 30
0.0
 11
55.7195
 21
55.0002
 31
0.0
  0
LINE
  8
0
 62
     0
 10
55.7195
 20
55.0002
 30
0.0
 11
55.7195
 21
55.9992
 31
0.0
  0
LINE
  8
0
 62
     0
 10
55.7195
 20
55.9992
 30
0.0
 11
41.7202
 21
55.9992
 31
0.0
  0
LINE
  8
0
 62
     0
 10
22.6701
 20
55.9992
 30
0.0
 11
22.6701
 21
55.0002
 31
0.0
  0
LINE
  8
0
 62
     0
 10
22.6701
 20
55.0002
 30
0.0
 11
21.8695
 21
55.0002
 31
0.0
  0
LINE
  8
0
 62
     0
 10
21.8695
 20
55.0002
 30
0.0
 11
21.8695
 21
51.8996
 31
0.0
  0
LINE
  8
0
 62
     0
 10
21.8695
 20
51.8996
 30
0.0
 11
22.6701
 21
51.8996
 31
0.0
  0
LINE
  8
0
 62
     0
 10
22.6701
 20
51.8996
 30
0.0
 11
22.6701
 21
46.0996
 31
0.0
  0
LINE
  8
0
 62
     0
 10
22.6701
 20
46.0996
 30
0.0
 11
21.8695
 21
46.0996
 31
0.0
  0
LINE
  8
0
 62
     0
 10
21.8695
 20
46.0996
 30
0.0
 11
21.8695
 21
43.0004
 31
0.0
  0
LINE
  8
0
 62
     0
 10
21.8695
 20
43.0004
 30
0.0
 11
22.6701
 21
43.0004
 31
0.0
  0
LINE
  8
0
 62
     0
 10
22.6701
 20
43.0004
 30
0.0
 11
22.6701
 21
42
 31
0.0
  0
LINE
  8
0
 62
     0
 10
22.6701
 20
42
 30
0.0
 11
36.6695
 21
42
 31
0.0
  0
LINE
  8
0
 62
     0
 10
36.6695
 20
42
 30
0.0
 11
36.6695
 21
43.0004
 31
0.0
  0
LINE
  8
0
 62
     0
 10
36.6695
 20
43.0004
 30
0.0
 11
37.4689
 21
43.0004
 31
0.0
  0
LINE
  8
0
 62
     0
 10
37.4689
 20
43.0004
 30
0.0
 11
37.4689
 21
46.0996
 31
0.0
  0
LINE
  8
0
 62
     0
 10
37.4689
 20
46.0996
 30
0.0
 11
36.6695
 21
46.0996
 31
0.0
  0
LINE
  8
0
 62
     0
 10
36.6695
 20
46.0996
 30
0.0
 11
36.6695
 21
51.8996
 31
0.0
  0
LINE
  8
0
 62
     0
 10
36.6695
 20
51.8996
 30
0.0
 11
37.4689
 21
51.8996
 31
0.0
  0
LINE
  8
0
 62
     0
 10
37.4689
 20
51.8996
 30
0.0
 11
37.4689
 21
55.0002
 31
0.0
  0
LINE
  8
0
 62
     0
 10
37.4689
 20
55.0002
 30
0.0
 11
36.6695
 21
55.0002
 31
0.0
  0
LINE
  8
0
 62
     0
 10
36.6695
 20
55.0002
 30
0.0
 11
36.6695
 21
55.9992
 31
0.0
  0
LINE
  8
0
 62
     0
 10
36.6695
 20
55.9992
 30
0.0
 11
22.6701
 21
55.9992
 31
0.0
  0
LINE
  8
0
 62
     0
 10
3.6201
 20
55.9992
 30
0.0
 11
3.6201
 21
55.0002
 31
0.0
  0
LINE
  8
0
 62
     0
 10
3.6201
 20
55.0002
 30
0.0
 11
2.81947
 21
55.0002
 31
0.0
  0
LINE
  8
0
 62
     0
 10
2.81947
 20
55.0002
 30
0.0
 11
2.81947
 21
51.8996
 31
0.0
  0
LINE
  8
0
 62
     0
 10
2.81947
 20
51.8996
 30
0.0
 11
3.6201
 21
51.8996
 31
0.0
  0
LINE
  8
0
 62
     0
 10
3.6201
 20
51.8996
 30
0.0
 11
3.6201
 21
46.0996
 31
0.0
  0
LINE
  8
0
 62
     0
 10
3.6201
 20
46.0996
 30
0.0
 11
2.81947
 21
46.0996
 31
0.0
  0
LINE
  8
0
 62
     0
 10
2.81947
 20
46.0996
 30
0.0
 11
2.81947
 21
43.0004
 31
0.0
  0
LINE
  8
0
 62
     0
 10
2.81947
 20
43.0004
 30
0.0
 11
3.6201
 21
43.0004
 31
0.0
  0
LINE
  8
0
 62
     0
 10
3.6201
 20
43.0004
 30
0.0
 11
3.6201
 21
42
 31
0.0
  0
LINE
  8
0
 62
     0
 10
3.6201
 20
42
 30
0.0
 11
17.6196
 21
42
 31
0.0
  0
LINE
  8
0
 62
     0
 10
17.6196
 20
42
 30
0.0
 11
17.6196
 21
43.0004
 31
0.0
  0
LINE
  8
0
 62
     0
 10
17.6196
 20
43.0004
 30
0.0
 11
18.4188
 21
43.0004
 31
0.0
  0
LINE
  8
0
 62
     0
 10
18.4188
 20
43.0004
 30
0.0
 11
18.4188
 21
46.0996
 31
0.0
  0
LINE
  8
0
 62
     0
 10
18.4188
 20
46.0996
 30
0.0
 11
17.6196
 21
46.0996
 31
0.0
  0
LINE
  8
0
 62
     0
 10
17.6196
 20
46.0996
 30
0.0
 11
17.6196
 21
51.8996
 31
0.0
  0
LINE
  8
0
 62
     0
 10
17.6196
 20
51.8996
 30
0.0
 11
18.4188
 21
51.8996
 31
0.0
  0
LINE
  8
0
 62
     0
 10
18.4188
 20
51.8996
 30
0.0
 11
18.4188
 21
55.0002
 31
0.0
  0
LINE
  8
0
 62
     0
 10
18.4188
 20
55.0002
 30
0.0
 11
17.6196
 21
55.0002
 31
0.0
  0
LINE
  8
0
 62
     0
 10
17.6196
 20
55.0002
 30
0.0
 11
17.6196
 21
55.9992
 31
0.0
  0
LINE
  8
0
 62
     0
 10
17.6196
 20
55.9992
 30
0.0
 11
3.6201
 21
55.9992
 31
0.0
  0
LINE
  8
0
 62
     0
 10
260.795
 20
75.0492
 30
0.0
 11
260.795
 21
74.0502
 31
0.0
  0
LINE
  8
0
 62
     0
 10
260.795
 20
74.0502
 30
0.0
 11
259.994
 21
74.0502
 31
0.0
  0
LINE
  8
0
 62
     0
 10
259.994
 20
74.0502
 30
0.0
 11
259.994
 21
70.9496
 31
0.0
  0
LINE
  8
0
 62
     0
 10
259.994
 20
70.9496
 30
0.0
 11
260.795
 21
70.9496
 31
0.0
  0
LINE
  8
0
 62
     0
 10
260.795
 20
70.9496
 30
0.0
 11
260.795
 21
65.1496
 31
0.0
  0
LINE
  8
0
 62
     0
 10
260.795
 20
65.1496
 30
0.0
 11
259.994
 21
65.1496
 31
0.0
  0
LINE
  8
0
 62
     0
 10
259.994
 20
65.1496
 30
0.0
 11
259.994
 21
62.0504
 31
0.0
  0
LINE
  8
0
 62
     0
 10
259.994
 20
62.0504
 30
0.0
 11
260.795
 21
62.0504
 31
0.0
  0
LINE
  8
0
 62
     0
 10
260.795
 20
62.0504
 30
0.0
 11
260.795
 21
61.05
 31
0.0
  0
LINE
  8
0
 62
     0
 10
260.795
 20
61.05
 30
0.0
 11
274.794
 21
61.05
 31
0.0
  0
LINE
  8
0
 62
     0
 10
274.794
 20
61.05
 30
0.0
 11
274.794
 21
62.0504
 31
0.0
  0
LINE
  8
0
 62
     0
 10
274.794
 20
62.0504
 30
0.0
 11
275.594
 21
62.0504
 31
0.0
  0
LINE
  8
0
 62
     0
 10
275.594
 20
62.0504
 30
0.0
 11
275.594
 21
65.1496
 31
0.0
  0
LINE
  8
0
 62
     0
 10
275.594
 20
65.1496
 30
0.0
 11
274.794
 21
65.1496
 31
0.0
  0
LINE
  8
0
 62
     0
 10
274.794
 20
65.1496
 30
0.0
 11
274.794
 21
70.9496
 31
0.0
  0
LINE
  8
0
 62
     0
 10
274.794
 20
70.9496
 30
0.0
 11
275.594
 21
70.9496
 31
0.0
  0
LINE
  8
0
 62
     0
 10
275.594
 20
70.9496
 30
0.0
 11
275.594
 21
74.0502
 31
0.0
  0
LINE
  8
0
 62
     0
 10
275.594
 20
74.0502
 30
0.0
 11
274.794
 21
74.0502
 31
0.0
  0
LINE
  8
0
 62
     0
 10
274.794
 20
74.0502
 30
0.0
 11
274.794
 21
75.0492
 31
0.0
  0
LINE
  8
0
 62
     0
 10
274.794
 20
75.0492
 30
0.0
 11
260.795
 21
75.0492
 31
0.0
  0
LINE
  8
0
 62
     0
 10
241.745
 20
75.0492
 30
0.0
 11
241.745
 21
74.0502
 31
0.0
  0
LINE
  8
0
 62
     0
 10
241.745
 20
74.0502
 30
0.0
 11
240.944
 21
74.0502
 31
0.0
  0
LINE
  8
0
 62
     0
 10
240.944
 20
74.0502
 30
0.0
 11
240.944
 21
70.9496
 31
0.0
  0
LINE
  8
0
 62
     0
 10
240.944
 20
70.9496
 30
0.0
 11
241.745
 21
70.9496
 31
0.0
  0
LINE
  8
0
 62
     0
 10
241.745
 20
70.9496
 30
0.0
 11
241.745
 21
65.1496
 31
0.0
  0
LINE
  8
0
 62
     0
 10
241.745
 20
65.1496
 30
0.0
 11
240.944
 21
65.1496
 31
0.0
  0
LINE
  8
0
 62
     0
 10
240.944
 20
65.1496
 30
0.0
 11
240.944
 21
62.0504
 31
0.0
  0
LINE
  8
0
 62
     0
 10
240.944
 20
62.0504
 30
0.0
 11
241.745
 21
62.0504
 31
0.0
  0
LINE
  8
0
 62
     0
 10
241.745
 20
62.0504
 30
0.0
 11
241.745
 21
61.05
 31
0.0
  0
LINE
  8
0
 62
     0
 10
241.745
 20
61.05
 30
0.0
 11
255.743
 21
61.05
 31
0.0
  0
LINE
  8
0
 62
     0
 10
255.743
 20
61.05
 30
0.0
 11
255.743
 21
62.0504
 31
0.0
  0
LINE
  8
0
 62
     0
 10
255.743
 20
62.0504
 30
0.0
 11
256.544
 21
62.0504
 31
0.0
  0
LINE
  8
0
 62
     0
 10
256.544
 20
62.0504
 30
0.0
 11
256.544
 21
65.1496
 31
0.0
  0
LINE
  8
0
 62
     0
 10
256.544
 20
65.1496
 30
0.0
 11
255.743
 21
65.1496
 31
0.0
  0
LINE
  8
0
 62
     0
 10
255.743
 20
65.1496
 30
0.0
 11
255.743
 21
70.9496
 31
0.0
  0
LINE
  8
0
 62
     0
 10
255.743
 20
70.9496
 30
0.0
 11
256.544
 21
70.9496
 31
0.0
  0
LINE
  8
0
 62
     0
 10
256.544
 20
70.9496
 30
0.0
 11
256.544
 21
74.0502
 31
0.0
  0
LINE
  8
0
 62
     0
 10
256.544
 20
74.0502
 30
0.0
 11
255.743
 21
74.0502
 31
0.0
  0
LINE
  8
0
 62
     0
 10
255.743
 20
74.0502
 30
0.0
 11
255.743
 21
75.0492
 31
0.0
  0
LINE
  8
0
 62
     0
 10
255.743
 20
75.0492
 30
0.0
 11
241.745
 21
75.0492
 31
0.0
  0
LINE
  8
0
 62
     0
 10
222.695
 20
75.0492
 30
0.0
 11
222.695
 21
74.0502
 31
0.0
  0
LINE
  8
0
 62
     0
 10
222.695
 20
74.0502
 30
0.0
 11
221.894
 21
74.0502
 31
0.0
  0
LINE
  8
0
 62
     0
 10
221.894
 20
74.0502
 30
0.0
 11
221.894
 21
70.9496
 31
0.0
  0
LINE
  8
0
 62
     0
 10
221.894
 20
70.9496
 30
0.0
 11
222.695
 21
70.9496
 31
0.0
  0
LINE
  8
0
 62
     0
 10
222.695
 20
70.9496
 30
0.0
 11
222.695
 21
65.1496
 31
0.0
  0
LINE
  8
0
 62
     0
 10
222.695
 20
65.1496
 30
0.0
 11
221.894
 21
65.1496
 31
0.0
  0
LINE
  8
0
 62
     0
 10
221.894
 20
65.1496
 30
0.0
 11
221.894
 21
62.0504
 31
0.0
  0
LINE
  8
0
 62
     0
 10
221.894
 20
62.0504
 30
0.0
 11
222.695
 21
62.0504
 31
0.0
  0
LINE
  8
0
 62
     0
 10
222.695
 20
62.0504
 30
0.0
 11
222.695
 21
61.05
 31
0.0
  0
LINE
  8
0
 62
     0
 10
222.695
 20
61.05
 30
0.0
 11
236.694
 21
61.05
 31
0.0
  0
LINE
  8
0
 62
     0
 10
236.694
 20
61.05
 30
0.0
 11
236.694
 21
62.0504
 31
0.0
  0
LINE
  8
0
 62
     0
 10
236.694
 20
62.0504
 30
0.0
 11
237.494
 21
62.0504
 31
0.0
  0
LINE
  8
0
 62
     0
 10
237.494
 20
62.0504
 30
0.0
 11
237.494
 21
65.1496
 31
0.0
  0
LINE
  8
0
 62
     0
 10
237.494
 20
65.1496
 30
0.0
 11
236.694
 21
65.1496
 31
0.0
  0
LINE
  8
0
 62
     0
 10
236.694
 20
65.1496
 30
0.0
 11
236.694
 21
70.9496
 31
0.0
  0
LINE
  8
0
 62
     0
 10
236.694
 20
70.9496
 30
0.0
 11
237.494
 21
70.9496
 31
0.0
  0
LINE
  8
0
 62
     0
 10
237.494
 20
70.9496
 30
0.0
 11
237.494
 21
74.0502
 31
0.0
  0
LINE
  8
0
 62
     0
 10
237.494
 20
74.0502
 30
0.0
 11
236.694
 21
74.0502
 31
0.0
  0
LINE
  8
0
 62
     0
 10
236.694
 20
74.0502
 30
0.0
 11
236.694
 21
75.0492
 31
0.0
  0
LINE
  8
0
 62
     0
 10
236.694
 20
75.0492
 30
0.0
 11
222.695
 21
75.0492
 31
0.0
  0
LINE
  8
0
 62
     0
 10
203.645
 20
75.0492
 30
0.0
 11
203.645
 21
74.0502
 31
0.0
  0
LINE
  8
0
 62
     0
 10
203.645
 20
74.0502
 30
0.0
 11
202.844
 21
74.0502
 31
0.0
  0
LINE
  8
0
 62
     0
 10
202.844
 20
74.0502
 30
0.0
 11
202.844
 21
70.9496
 31
0.0
  0
LINE
  8
0
 62
     0
 10
202.844
 20
70.9496
 30
0.0
 11
203.645
 21
70.9496
 31
0.0
  0
LINE
  8
0
 62
     0
 10
203.645
 20
70.9496
 30
0.0
 11
203.645
 21
65.1496
 31
0.0
  0
LINE
  8
0
 62
     0
 10
203.645
 20
65.1496
 30
0.0
 11
202.844
 21
65.1496
 31
0.0
  0
LINE
  8
0
 62
     0
 10
202.844
 20
65.1496
 30
0.0
 11
202.844
 21
62.0504
 31
0.0
  0
LINE
  8
0
 62
     0
 10
202.844
 20
62.0504
 30
0.0
 11
203.645
 21
62.0504
 31
0.0
  0
LINE
  8
0
 62
     0
 10
203.645
 20
62.0504
 30
0.0
 11
203.645
 21
61.05
 31
0.0
  0
LINE
  8
0
 62
     0
 10
203.645
 20
61.05
 30
0.0
 11
217.644
 21
61.05
 31
0.0
  0
LINE
  8
0
 62
     0
 10
217.644
 20
61.05
 30
0.0
 11
217.644
 21
62.0504
 31
0.0
  0
LINE
  8
0
 62
     0
 10
217.644
 20
62.0504
 30
0.0
 11
218.444
 21
62.0504
 31
0.0
  0
LINE
  8
0
 62
     0
 10
218.444
 20
62.0504
 30
0.0
 11
218.444
 21
65.1496
 31
0.0
  0
LINE
  8
0
 62
     0
 10
218.444
 20
65.1496
 30
0.0
 11
217.644
 21
65.1496
 31
0.0
  0
LINE
  8
0
 62
     0
 10
217.644
 20
65.1496
 30
0.0
 11
217.644
 21
70.9496
 31
0.0
  0
LINE
  8
0
 62
     0
 10
217.644
 20
70.9496
 30
0.0
 11
218.444
 21
70.9496
 31
0.0
  0
LINE
  8
0
 62
     0
 10
218.444
 20
70.9496
 30
0.0
 11
218.444
 21
74.0502
 31
0.0
  0
LINE
  8
0
 62
     0
 10
218.444
 20
74.0502
 30
0.0
 11
217.644
 21
74.0502
 31
0.0
  0
LINE
  8
0
 62
     0
 10
217.644
 20
74.0502
 30
0.0
 11
217.644
 21
75.0492
 31
0.0
  0
LINE
  8
0
 62
     0
 10
217.644
 20
75.0492
 30
0.0
 11
203.645
 21
75.0492
 31
0.0
  0
LINE
  8
0
 62
     0
 10
184.595
 20
75.0492
 30
0.0
 11
184.595
 21
74.0502
 31
0.0
  0
LINE
  8
0
 62
     0
 10
184.595
 20
74.0502
 30
0.0
 11
183.794
 21
74.0502
 31
0.0
  0
LINE
  8
0
 62
     0
 10
183.794
 20
74.0502
 30
0.0
 11
183.794
 21
70.9496
 31
0.0
  0
LINE
  8
0
 62
     0
 10
183.794
 20
70.9496
 30
0.0
 11
184.595
 21
70.9496
 31
0.0
  0
LINE
  8
0
 62
     0
 10
184.595
 20
70.9496
 30
0.0
 11
184.595
 21
65.1496
 31
0.0
  0
LINE
  8
0
 62
     0
 10
184.595
 20
65.1496
 30
0.0
 11
183.794
 21
65.1496
 31
0.0
  0
LINE
  8
0
 62
     0
 10
183.794
 20
65.1496
 30
0.0
 11
183.794
 21
62.0504
 31
0.0
  0
LINE
  8
0
 62
     0
 10
183.794
 20
62.0504
 30
0.0
 11
184.595
 21
62.0504
 31
0.0
  0
LINE
  8
0
 62
     0
 10
184.595
 20
62.0504
 30
0.0
 11
184.595
 21
61.05
 31
0.0
  0
LINE
  8
0
 62
     0
 10
184.595
 20
61.05
 30
0.0
 11
198.594
 21
61.05
 31
0.0
  0
LINE
  8
0
 62
     0
 10
198.594
 20
61.05
 30
0.0
 11
198.594
 21
62.0504
 31
0.0
  0
LINE
  8
0
 62
     0
 10
198.594
 20
62.0504
 30
0.0
 11
199.394
 21
62.0504
 31
0.0
  0
LINE
  8
0
 62
     0
 10
199.394
 20
62.0504
 30
0.0
 11
199.394
 21
65.1496
 31
0.0
  0
LINE
  8
0
 62
     0
 10
199.394
 20
65.1496
 30
0.0
 11
198.594
 21
65.1496
 31
0.0
  0
LINE
  8
0
 62
     0
 10
198.594
 20
65.1496
 30
0.0
 11
198.594
 21
70.9496
 31
0.0
  0
LINE
  8
0
 62
     0
 10
198.594
 20
70.9496
 30
0.0
 11
199.394
 21
70.9496
 31
0.0
  0
LINE
  8
0
 62
     0
 10
199.394
 20
70.9496
 30
0.0
 11
199.394
 21
74.0502
 31
0.0
  0
LINE
  8
0
 62
     0
 10
199.394
 20
74.0502
 30
0.0
 11
198.594
 21
74.0502
 31
0.0
  0
LINE
  8
0
 62
     0
 10
198.594
 20
74.0502
 30
0.0
 11
198.594
 21
75.0492
 31
0.0
  0
LINE
  8
0
 62
     0
 10
198.594
 20
75.0492
 30
0.0
 11
184.595
 21
75.0492
 31
0.0
  0
LINE
  8
0
 62
     0
 10
165.545
 20
75.0492
 30
0.0
 11
165.545
 21
74.0502
 31
0.0
  0
LINE
  8
0
 62
     0
 10
165.545
 20
74.0502
 30
0.0
 11
164.744
 21
74.0502
 31
0.0
  0
LINE
  8
0
 62
     0
 10
164.744
 20
74.0502
 30
0.0
 11
164.744
 21
70.9496
 31
0.0
  0
LINE
  8
0
 62
     0
 10
164.744
 20
70.9496
 30
0.0
 11
165.545
 21
70.9496
 31
0.0
  0
LINE
  8
0
 62
     0
 10
165.545
 20
70.9496
 30
0.0
 11
165.545
 21
65.1496
 31
0.0
  0
LINE
  8
0
 62
     0
 10
165.545
 20
65.1496
 30
0.0
 11
164.744
 21
65.1496
 31
0.0
  0
LINE
  8
0
 62
     0
 10
164.744
 20
65.1496
 30
0.0
 11
164.744
 21
62.0504
 31
0.0
  0
LINE
  8
0
 62
     0
 10
164.744
 20
62.0504
 30
0.0
 11
165.545
 21
62.0504
 31
0.0
  0
LINE
  8
0
 62
     0
 10
165.545
 20
62.0504
 30
0.0
 11
165.545
 21
61.05
 31
0.0
  0
LINE
  8
0
 62
     0
 10
165.545
 20
61.05
 30
0.0
 11
179.544
 21
61.05
 31
0.0
  0
LINE
  8
0
 62
     0
 10
179.544
 20
61.05
 30
0.0
 11
179.544
 21
62.0504
 31
0.0
  0
LINE
  8
0
 62
     0
 10
179.544
 20
62.0504
 30
0.0
 11
180.344
 21
62.0504
 31
0.0
  0
LINE
  8
0
 62
     0
 10
180.344
 20
62.0504
 30
0.0
 11
180.344
 21
65.1496
 31
0.0
  0
LINE
  8
0
 62
     0
 10
180.344
 20
65.1496
 30
0.0
 11
179.544
 21
65.1496
 31
0.0
  0
LINE
  8
0
 62
     0
 10
179.544
 20
65.1496
 30
0.0
 11
179.544
 21
70.9496
 31
0.0
  0
LINE
  8
0
 62
     0
 10
179.544
 20
70.9496
 30
0.0
 11
180.344
 21
70.9496
 31
0.0
  0
LINE
  8
0
 62
     0
 10
180.344
 20
70.9496
 30
0.0
 11
180.344
 21
74.0502
 31
0.0
  0
LINE
  8
0
 62
     0
 10
180.344
 20
74.0502
 30
0.0
 11
179.544
 21
74.0502
 31
0.0
  0
LINE
  8
0
 62
     0
 10
179.544
 20
74.0502
 30
0.0
 11
179.544
 21
75.0492
 31
0.0
  0
LINE
  8
0
 62
     0
 10
179.544
 20
75.0492
 30
0.0
 11
165.545
 21
75.0492
 31
0.0
  0
LINE
  8
0
 62
     0
 10
146.495
 20
75.0492
 30
0.0
 11
146.495
 21
74.0502
 31
0.0
  0
LINE
  8
0
 62
     0
 10
146.495
 20
74.0502
 30
0.0
 11
145.694
 21
74.0502
 31
0.0
  0
LINE
  8
0
 62
     0
 10
145.694
 20
74.0502
 30
0.0
 11
145.694
 21
70.9496
 31
0.0
  0
LINE
  8
0
 62
     0
 10
145.694
 20
70.9496
 30
0.0
 11
146.495
 21
70.9496
 31
0.0
  0
LINE
  8
0
 62
     0
 10
146.495
 20
70.9496
 30
0.0
 11
146.495
 21
65.1496
 31
0.0
  0
LINE
  8
0
 62
     0
 10
146.495
 20
65.1496
 30
0.0
 11
145.694
 21
65.1496
 31
0.0
  0
LINE
  8
0
 62
     0
 10
145.694
 20
65.1496
 30
0.0
 11
145.694
 21
62.0504
 31
0.0
  0
LINE
  8
0
 62
     0
 10
145.694
 20
62.0504
 30
0.0
 11
146.495
 21
62.0504
 31
0.0
  0
LINE
  8
0
 62
     0
 10
146.495
 20
62.0504
 30
0.0
 11
146.495
 21
61.05
 31
0.0
  0
LINE
  8
0
 62
     0
 10
146.495
 20
61.05
 30
0.0
 11
160.494
 21
61.05
 31
0.0
  0
LINE
  8
0
 62
     0
 10
160.494
 20
61.05
 30
0.0
 11
160.494
 21
62.0504
 31
0.0
  0
LINE
  8
0
 62
     0
 10
160.494
 20
62.0504
 30
0.0
 11
161.294
 21
62.0504
 31
0.0
  0
LINE
  8
0
 62
     0
 10
161.294
 20
62.0504
 30
0.0
 11
161.294
 21
65.1496
 31
0.0
  0
LINE
  8
0
 62
     0
 10
161.294
 20
65.1496
 30
0.0
 11
160.494
 21
65.1496
 31
0.0
  0
LINE
  8
0
 62
     0
 10
160.494
 20
65.1496
 30
0.0
 11
160.494
 21
70.9496
 31
0.0
  0
LINE
  8
0
 62
     0
 10
160.494
 20
70.9496
 30
0.0
 11
161.294
 21
70.9496
 31
0.0
  0
LINE
  8
0
 62
     0
 10
161.294
 20
70.9496
 30
0.0
 11
161.294
 21
74.0502
 31
0.0
  0
LINE
  8
0
 62
     0
 10
161.294
 20
74.0502
 30
0.0
 11
160.494
 21
74.0502
 31
0.0
  0
LINE
  8
0
 62
     0
 10
160.494
 20
74.0502
 30
0.0
 11
160.494
 21
75.0492
 31
0.0
  0
LINE
  8
0
 62
     0
 10
160.494
 20
75.0492
 30
0.0
 11
146.495
 21
75.0492
 31
0.0
  0
LINE
  8
0
 62
     0
 10
127.445
 20
75.0492
 30
0.0
 11
127.445
 21
74.0502
 31
0.0
  0
LINE
  8
0
 62
     0
 10
127.445
 20
74.0502
 30
0.0
 11
126.643
 21
74.0502
 31
0.0
  0
LINE
  8
0
 62
     0
 10
126.643
 20
74.0502
 30
0.0
 11
126.643
 21
70.9496
 31
0.0
  0
LINE
  8
0
 62
     0
 10
126.643
 20
70.9496
 30
0.0
 11
127.445
 21
70.9496
 31
0.0
  0
LINE
  8
0
 62
     0
 10
127.445
 20
70.9496
 30
0.0
 11
127.445
 21
65.1496
 31
0.0
  0
LINE
  8
0
 62
     0
 10
127.445
 20
65.1496
 30
0.0
 11
126.643
 21
65.1496
 31
0.0
  0
LINE
  8
0
 62
     0
 10
126.643
 20
65.1496
 30
0.0
 11
126.643
 21
62.0504
 31
0.0
  0
LINE
  8
0
 62
     0
 10
126.643
 20
62.0504
 30
0.0
 11
127.445
 21
62.0504
 31
0.0
  0
LINE
  8
0
 62
     0
 10
127.445
 20
62.0504
 30
0.0
 11
127.445
 21
61.05
 31
0.0
  0
LINE
  8
0
 62
     0
 10
127.445
 20
61.05
 30
0.0
 11
141.444
 21
61.05
 31
0.0
  0
LINE
  8
0
 62
     0
 10
141.444
 20
61.05
 30
0.0
 11
141.444
 21
62.0504
 31
0.0
  0
LINE
  8
0
 62
     0
 10
141.444
 20
62.0504
 30
0.0
 11
142.244
 21
62.0504
 31
0.0
  0
LINE
  8
0
 62
     0
 10
142.244
 20
62.0504
 30
0.0
 11
142.244
 21
65.1496
 31
0.0
  0
LINE
  8
0
 62
     0
 10
142.244
 20
65.1496
 30
0.0
 11
141.444
 21
65.1496
 31
0.0
  0
LINE
  8
0
 62
     0
 10
141.444
 20
65.1496
 30
0.0
 11
141.444
 21
70.9496
 31
0.0
  0
LINE
  8
0
 62
     0
 10
141.444
 20
70.9496
 30
0.0
 11
142.244
 21
70.9496
 31
0.0
  0
LINE
  8
0
 62
     0
 10
142.244
 20
70.9496
 30
0.0
 11
142.244
 21
74.0502
 31
0.0
  0
LINE
  8
0
 62
     0
 10
142.244
 20
74.0502
 30
0.0
 11
141.444
 21
74.0502
 31
0.0
  0
LINE
  8
0
 62
     0
 10
141.444
 20
74.0502
 30
0.0
 11
141.444
 21
75.0492
 31
0.0
  0
LINE
  8
0
 62
     0
 10
141.444
 20
75.0492
 30
0.0
 11
127.445
 21
75.0492
 31
0.0
  0
LINE
  8
0
 62
     0
 10
108.395
 20
75.0492
 30
0.0
 11
108.395
 21
74.0502
 31
0.0
  0
LINE
  8
0
 62
     0
 10
108.395
 20
74.0502
 30
0.0
 11
107.594
 21
74.0502
 31
0.0
  0
LINE
  8
0
 62
     0
 10
107.594
 20
74.0502
 30
0.0
 11
107.594
 21
70.9496
 31
0.0
  0
LINE
  8
0
 62
     0
 10
107.594
 20
70.9496
 30
0.0
 11
108.395
 21
70.9496
 31
0.0
  0
LINE
  8
0
 62
     0
 10
108.395
 20
70.9496
 30
0.0
 11
108.395
 21
65.1496
 31
0.0
  0
LINE
  8
0
 62
     0
 10
108.395
 20
65.1496
 30
0.0
 11
107.594
 21
65.1496
 31
0.0
  0
LINE
  8
0
 62
     0
 10
107.594
 20
65.1496
 30
0.0
 11
107.594
 21
62.0504
 31
0.0
  0
LINE
  8
0
 62
     0
 10
107.594
 20
62.0504
 30
0.0
 11
108.395
 21
62.0504
 31
0.0
  0
LINE
  8
0
 62
     0
 10
108.395
 20
62.0504
 30
0.0
 11
108.395
 21
61.05
 31
0.0
  0
LINE
  8
0
 62
     0
 10
108.395
 20
61.05
 30
0.0
 11
122.394
 21
61.05
 31
0.0
  0
LINE
  8
0
 62
     0
 10
122.394
 20
61.05
 30
0.0
 11
122.394
 21
62.0504
 31
0.0
  0
LINE
  8
0
 62
     0
 10
122.394
 20
62.0504
 30
0.0
 11
123.194
 21
62.0504
 31
0.0
  0
LINE
  8
0
 62
     0
 10
123.194
 20
62.0504
 30
0.0
 11
123.194
 21
65.1496
 31
0.0
  0
LINE
  8
0
 62
     0
 10
123.194
 20
65.1496
 30
0.0
 11
122.394
 21
65.1496
 31
0.0
  0
LINE
  8
0
 62
     0
 10
122.394
 20
65.1496
 30
0.0
 11
122.394
 21
70.9496
 31
0.0
  0
LINE
  8
0
 62
     0
 10
122.394
 20
70.9496
 30
0.0
 11
123.194
 21
70.9496
 31
0.0
  0
LINE
  8
0
 62
     0
 10
123.194
 20
70.9496
 30
0.0
 11
123.194
 21
74.0502
 31
0.0
  0
LINE
  8
0
 62
     0
 10
123.194
 20
74.0502
 30
0.0
 11
122.394
 21
74.0502
 31
0.0
  0
LINE
  8
0
 62
     0
 10
122.394
 20
74.0502
 30
0.0
 11
122.394
 21
75.0492
 31
0.0
  0
LINE
  8
0
 62
     0
 10
122.394
 20
75.0492
 30
0.0
 11
108.395
 21
75.0492
 31
0.0
  0
LINE
  8
0
 62
     0
 10
89.3452
 20
75.0492
 30
0.0
 11
89.3452
 21
74.0502
 31
0.0
  0
LINE
  8
0
 62
     0
 10
89.3452
 20
74.0502
 30
0.0
 11
88.5444
 21
74.0502
 31
0.0
  0
LINE
  8
0
 62
     0
 10
88.5444
 20
74.0502
 30
0.0
 11
88.5444
 21
70.9496
 31
0.0
  0
LINE
  8
0
 62
     0
 10
88.5444
 20
70.9496
 30
0.0
 11
89.3452
 21
70.9496
 31
0.0
  0
LINE
  8
0
 62
     0
 10
89.3452
 20
70.9496
 30
0.0
 11
89.3452
 21
65.1496
 31
0.0
  0
LINE
  8
0
 62
     0
 10
89.3452
 20
65.1496
 30
0.0
 11
88.5444
 21
65.1496
 31
0.0
  0
LINE
  8
0
 62
     0
 10
88.5444
 20
65.1496
 30
0.0
 11
88.5444
 21
62.0504
 31
0.0
  0
LINE
  8
0
 62
     0
 10
88.5444
 20
62.0504
 30
0.0
 11
89.3452
 21
62.0504
 31
0.0
  0
LINE
  8
0
 62
     0
 10
89.3452
 20
62.0504
 30
0.0
 11
89.3452
 21
61.05
 31
0.0
  0
LINE
  8
0
 62
     0
 10
89.3452
 20
61.05
 30
0.0
 11
103.344
 21
61.05
 31
0.0
  0
LINE
  8
0
 62
     0
 10
103.344
 20
61.05
 30
0.0
 11
103.344
 21
62.0504
 31
0.0
  0
LINE
  8
0
 62
     0
 10
103.344
 20
62.0504
 30
0.0
 11
104.144
 21
62.0504
 31
0.0
  0
LINE
  8
0
 62
     0
 10
104.144
 20
62.0504
 30
0.0
 11
104.144
 21
65.1496
 31
0.0
  0
LINE
  8
0
 62
     0
 10
104.144
 20
65.1496
 30
0.0
 11
103.344
 21
65.1496
 31
0.0
  0
LINE
  8
0
 62
     0
 10
103.344
 20
65.1496
 30
0.0
 11
103.344
 21
70.9496
 31
0.0
  0
LINE
  8
0
 62
     0
 10
103.344
 20
70.9496
 30
0.0
 11
104.144
 21
70.9496
 31
0.0
  0
LINE
  8
0
 62
     0
 10
104.144
 20
70.9496
 30
0.0
 11
104.144
 21
74.0502
 31
0.0
  0
LINE
  8
0
 62
     0
 10
104.144
 20
74.0502
 30
0.0
 11
103.344
 21
74.0502
 31
0.0
  0
LINE
  8
0
 62
     0
 10
103.344
 20
74.0502
 30
0.0
 11
103.344
 21
75.0492
 31
0.0
  0
LINE
  8
0
 62
     0
 10
103.344
 20
75.0492
 30
0.0
 11
89.3452
 21
75.0492
 31
0.0
  0
LINE
  8
0
 62
     0
 10
70.2952
 20
75.0492
 30
0.0
 11
70.2952
 21
74.0502
 31
0.0
  0
LINE
  8
0
 62
     0
 10
70.2952
 20
74.0502
 30
0.0
 11
69.4944
 21
74.0502
 31
0.0
  0
LINE
  8
0
 62
     0
 10
69.4944
 20
74.0502
 30
0.0
 11
69.4944
 21
70.9496
 31
0.0
  0
LINE
  8
0
 62
     0
 10
69.4944
 20
70.9496
 30
0.0
 11
70.2952
 21
70.9496
 31
0.0
  0
LINE
  8
0
 62
     0
 10
70.2952
 20
70.9496
 30
0.0
 11
70.2952
 21
65.1496
 31
0.0
  0
LINE
  8
0
 62
     0
 10
70.2952
 20
65.1496
 30
0.0
 11
69.4944
 21
65.1496
 31
0.0
  0
LINE
  8
0
 62
     0
 10
69.4944
 20
65.1496
 30
0.0
 11
69.4944
 21
62.0504
 31
0.0
  0
LINE
  8
0
 62
     0
 10
69.4944
 20
62.0504
 30
0.0
 11
70.2952
 21
62.0504
 31
0.0
  0
LINE
  8
0
 62
     0
 10
70.2952
 20
62.0504
 30
0.0
 11
70.2952
 21
61.05
 31
0.0
  0
LINE
  8
0
 62
     0
 10
70.2952
 20
61.05
 30
0.0
 11
84.2945
 21
61.05
 31
0.0
  0
LINE
  8
0
 62
     0
 10
84.2945
 20
61.05
 30
0.0
 11
84.2945
 21
62.0504
 31
0.0
  0
LINE
  8
0
 62
     0
 10
84.2945
 20
62.0504
 30
0.0
 11
85.0939
 21
62.0504
 31
0.0
  0
LINE
  8
0
 62
     0
 10
85.0939
 20
62.0504
 30
0.0
 11
85.0939
 21
65.1496
 31
0.0
  0
LINE
  8
0
 62
     0
 10
85.0939
 20
65.1496
 30
0.0
 11
84.2945
 21
65.1496
 31
0.0
  0
LINE
  8
0
 62
     0
 10
84.2945
 20
65.1496
 30
0.0
 11
84.2945
 21
70.9496
 31
0.0
  0
LINE
  8
0
 62
     0
 10
84.2945
 20
70.9496
 30
0.0
 11
85.0939
 21
70.9496
 31
0.0
  0
LINE
  8
0
 62
     0
 10
85.0939
 20
70.9496
 30
0.0
 11
85.0939
 21
74.0502
 31
0.0
  0
LINE
  8
0
 62
     0
 10
85.0939
 20
74.0502
 30
0.0
 11
84.2945
 21
74.0502
 31
0.0
  0
LINE
  8
0
 62
     0
 10
84.2945
 20
74.0502
 30
0.0
 11
84.2945
 21
75.0492
 31
0.0
  0
LINE
  8
0
 62
     0
 10
84.2945
 20
75.0492
 30
0.0
 11
70.2952
 21
75.0492
 31
0.0
  0
LINE
  8
0
 62
     0
 10
41.7202
 20
75.0492
 30
0.0
 11
41.7202
 21
74.0502
 31
0.0
  0
LINE
  8
0
 62
     0
 10
41.7202
 20
74.0502
 30
0.0
 11
40.9194
 21
74.0502
 31
0.0
  0
LINE
  8
0
 62
     0
 10
40.9194
 20
74.0502
 30
0.0
 11
40.9194
 21
70.9496
 31
0.0
  0
LINE
  8
0
 62
     0
 10
40.9194
 20
70.9496
 30
0.0
 11
41.7202
 21
70.9496
 31
0.0
  0
LINE
  8
0
 62
     0
 10
41.7202
 20
70.9496
 30
0.0
 11
41.7202
 21
65.1496
 31
0.0
  0
LINE
  8
0
 62
     0
 10
41.7202
 20
65.1496
 30
0.0
 11
40.9194
 21
65.1496
 31
0.0
  0
LINE
  8
0
 62
     0
 10
40.9194
 20
65.1496
 30
0.0
 11
40.9194
 21
62.0504
 31
0.0
  0
LINE
  8
0
 62
     0
 10
40.9194
 20
62.0504
 30
0.0
 11
41.7202
 21
62.0504
 31
0.0
  0
LINE
  8
0
 62
     0
 10
41.7202
 20
62.0504
 30
0.0
 11
41.7202
 21
61.05
 31
0.0
  0
LINE
  8
0
 62
     0
 10
41.7202
 20
61.05
 30
0.0
 11
55.7195
 21
61.05
 31
0.0
  0
LINE
  8
0
 62
     0
 10
55.7195
 20
61.05
 30
0.0
 11
55.7195
 21
62.0504
 31
0.0
  0
LINE
  8
0
 62
     0
 10
55.7195
 20
62.0504
 30
0.0
 11
56.5189
 21
62.0504
 31
0.0
  0
LINE
  8
0
 62
     0
 10
56.5189
 20
62.0504
 30
0.0
 11
56.5189
 21
65.1496
 31
0.0
  0
LINE
  8
0
 62
     0
 10
56.5189
 20
65.1496
 30
0.0
 11
55.7195
 21
65.1496
 31
0.0
  0
LINE
  8
0
 62
     0
 10
55.7195
 20
65.1496
 30
0.0
 11
55.7195
 21
70.9496
 31
0.0
  0
LINE
  8
0
 62
     0
 10
55.7195
 20
70.9496
 30
0.0
 11
56.5189
 21
70.9496
 31
0.0
  0
LINE
  8
0
 62
     0
 10
56.5189
 20
70.9496
 30
0.0
 11
56.5189
 21
74.0502
 31
0.0
  0
LINE
  8
0
 62
     0
 10
56.5189
 20
74.0502
 30
0.0
 11
55.7195
 21
74.0502
 31
0.0
  0
LINE
  8
0
 62
     0
 10
55.7195
 20
74.0502
 30
0.0
 11
55.7195
 21
75.0492
 31
0.0
  0
LINE
  8
0
 62
     0
 10
55.7195
 20
75.0492
 30
0.0
 11
41.7202
 21
75.0492
 31
0.0
  0
LINE
  8
0
 62
     0
 10
22.6701
 20
75.0492
 30
0.0
 11
22.6701
 21
74.0502
 31
0.0
  0
LINE
  8
0
 62
     0
 10
22.6701
 20
74.0502
 30
0.0
 11
21.8695
 21
74.0502
 31
0.0
  0
LINE
  8
0
 62
     0
 10
21.8695
 20
74.0502
 30
0.0
 11
21.8695
 21
70.9496
 31
0.0
  0
LINE
  8
0
 62
     0
 10
21.8695
 20
70.9496
 30
0.0
 11
22.6701
 21
70.9496
 31
0.0
  0
LINE
  8
0
 62
     0
 10
22.6701
 20
70.9496
 30
0.0
 11
22.6701
 21
65.1496
 31
0.0
  0
LINE
  8
0
 62
     0
 10
22.6701
 20
65.1496
 30
0.0
 11
21.8695
 21
65.1496
 31
0.0
  0
LINE
  8
0
 62
     0
 10
21.8695
 20
65.1496
 30
0.0
 11
21.8695
 21
62.0504
 31
0.0
  0
LINE
  8
0
 62
     0
 10
21.8695
 20
62.0504
 30
0.0
 11
22.6701
 21
62.0504
 31
0.0
  0
LINE
  8
0
 62
     0
 10
22.6701
 20
62.0504
 30
0.0
 11
22.6701
 21
61.05
 31
0.0
  0
LINE
  8
0
 62
     0
 10
22.6701
 20
61.05
 30
0.0
 11
36.6695
 21
61.05
 31
0.0
  0
LINE
  8
0
 62
     0
 10
36.6695
 20
61.05
 30
0.0
 11
36.6695
 21
62.0504
 31
0.0
  0
LINE
  8
0
 62
     0
 10
36.6695
 20
62.0504
 30
0.0
 11
37.4689
 21
62.0504
 31
0.0
  0
LINE
  8
0
 62
     0
 10
37.4689
 20
62.0504
 30
0.0
 11
37.4689
 21
65.1496
 31
0.0
  0
LINE
  8
0
 62
     0
 10
37.4689
 20
65.1496
 30
0.0
 11
36.6695
 21
65.1496
 31
0.0
  0
LINE
  8
0
 62
     0
 10
36.6695
 20
65.1496
 30
0.0
 11
36.6695
 21
70.9496
 31
0.0
  0
LINE
  8
0
 62
     0
 10
36.6695
 20
70.9496
 30
0.0
 11
37.4689
 21
70.9496
 31
0.0
  0
LINE
  8
0
 62
     0
 10
37.4689
 20
70.9496
 30
0.0
 11
37.4689
 21
74.0502
 31
0.0
  0
LINE
  8
0
 62
     0
 10
37.4689
 20
74.0502
 30
0.0
 11
36.6695
 21
74.0502
 31
0.0
  0
LINE
  8
0
 62
     0
 10
36.6695
 20
74.0502
 30
0.0
 11
36.6695
 21
75.0492
 31
0.0
  0
LINE
  8
0
 62
     0
 10
36.6695
 20
75.0492
 30
0.0
 11
22.6701
 21
75.0492
 31
0.0
  0
LINE
  8
0
 62
     0
 10
3.6201
 20
75.0492
 30
0.0
 11
3.6201
 21
74.0502
 31
0.0
  0
LINE
  8
0
 62
     0
 10
3.6201
 20
74.0502
 30
0.0
 11
2.81947
 21
74.0502
 31
0.0
  0
LINE
  8
0
 62
     0
 10
2.81947
 20
74.0502
 30
0.0
 11
2.81947
 21
70.9496
 31
0.0
  0
LINE
  8
0
 62
     0
 10
2.81947
 20
70.9496
 30
0.0
 11
3.6201
 21
70.9496
 31
0.0
  0
LINE
  8
0
 62
     0
 10
3.6201
 20
70.9496
 30
0.0
 11
3.6201
 21
65.1496
 31
0.0
  0
LINE
  8
0
 62
     0
 10
3.6201
 20
65.1496
 30
0.0
 11
2.81947
 21
65.1496
 31
0.0
  0
LINE
  8
0
 62
     0
 10
2.81947
 20
65.1496
 30
0.0
 11
2.81947
 21
62.0504
 31
0.0
  0
LINE
  8
0
 62
     0
 10
2.81947
 20
62.0504
 30
0.0
 11
3.6201
 21
62.0504
 31
0.0
  0
LINE
  8
0
 62
     0
 10
3.6201
 20
62.0504
 30
0.0
 11
3.6201
 21
61.05
 31
0.0
  0
LINE
  8
0
 62
     0
 10
3.6201
 20
61.05
 30
0.0
 11
17.6196
 21
61.05
 31
0.0
  0
LINE
  8
0
 62
     0
 10
17.6196
 20
61.05
 30
0.0
 11
17.6196
 21
62.0504
 31
0.0
  0
LINE
  8
0
 62
     0
 10
17.6196
 20
62.0504
 30
0.0
 11
18.4188
 21
62.0504
 31
0.0
  0
LINE
  8
0
 62
     0
 10
18.4188
 20
62.0504
 30
0.0
 11
18.4188
 21
65.1496
 31
0.0
  0
LINE
  8
0
 62
     0
 10
18.4188
 20
65.1496
 30
0.0
 11
17.6196
 21
65.1496
 31
0.0
  0
LINE
  8
0
 62
     0
 10
17.6196
 20
65.1496
 30
0.0
 11
17.6196
 21
70.9496
 31
0.0
  0
LINE
  8
0
 62
     0
 10
17.6196
 20
70.9496
 30
0.0
 11
18.4188
 21
70.9496
 31
0.0
  0
LINE
  8
0
 62
     0
 10
18.4188
 20
70.9496
 30
0.0
 11
18.4188
 21
74.0502
 31
0.0
  0
LINE
  8
0
 62
     0
 10
18.4188
 20
74.0502
 30
0.0
 11
17.6196
 21
74.0502
 31
0.0
  0
LINE
  8
0
 62
     0
 10
17.6196
 20
74.0502
 30
0.0
 11
17.6196
 21
75.0492
 31
0.0
  0
LINE
  8
0
 62
     0
 10
17.6196
 20
75.0492
 30
0.0
 11
3.6201
 21
75.0492
 31
0.0
  0
ENDSEC
  0
EOF
